<?xml version="1.0" encoding="UTF-8" standalone="no"?>
<svg
   xmlns:dc="http://purl.org/dc/elements/1.1/"
   xmlns:cc="http://creativecommons.org/ns#"
   xmlns:rdf="http://www.w3.org/1999/02/22-rdf-syntax-ns#"
   xmlns:svg="http://www.w3.org/2000/svg"
   xmlns="http://www.w3.org/2000/svg"
   xmlns:sodipodi="http://sodipodi.sourceforge.net/DTD/sodipodi-0.dtd"
   xmlns:inkscape="http://www.inkscape.org/namespaces/inkscape"
   width="297mm"
   height="210mm"
   viewBox="0 0 297 210"
   version="1.1"
   id="svg8"
   inkscape:version="1.0beta1 (ebe9883479, 2019-09-21)"
   sodipodi:docname="background.svg">
  <defs
     id="defs2" />
  <sodipodi:namedview
     id="base"
     pagecolor="#ffffff"
     bordercolor="#666666"
     borderopacity="1.0"
     inkscape:pageopacity="0.0"
     inkscape:pageshadow="2"
     inkscape:zoom="1.3429279"
     inkscape:cx="533.58403"
     inkscape:cy="308.80169"
     inkscape:document-units="mm"
     inkscape:current-layer="g1617"
     inkscape:document-rotation="0"
     showgrid="false"
     inkscape:window-width="2560"
     inkscape:window-height="1020"
     inkscape:window-x="0"
     inkscape:window-y="22"
     inkscape:window-maximized="1" />
  <metadata
     id="metadata5">
    <rdf:RDF>
      <cc:Work
         rdf:about="">
        <dc:format>image/svg+xml</dc:format>
        <dc:type
           rdf:resource="http://purl.org/dc/dcmitype/StillImage" />
        <dc:title />
      </cc:Work>
    </rdf:RDF>
  </metadata>
  <g
     inkscape:label="Sheet1"
     inkscape:groupmode="layer"
     id="layer1"
     style="display:inline">
    <g
       id="g1429"
       transform="translate(0,31.750014)">
      <path
         sodipodi:nodetypes="csc"
         inkscape:connector-curvature="0"
         id="path835"
         d="m 3.3992481,78 c 0,0 5.4327333,50.10826 146.8549819,-15.053258 C 278.75168,3.7404332 293.60075,34 293.60075,34"
         style="fill:none;stroke:#656565;stroke-width:0.264583px;stroke-linecap:butt;stroke-linejoin:miter;stroke-opacity:1" />
      <path
         style="fill:none;stroke:#656565;stroke-width:0.264583px;stroke-linecap:butt;stroke-linejoin:miter;stroke-opacity:1"
         d="m 3.3992505,110 c 0,0 16.0377355,42.20127 146.8549895,-31.053257 C 293.06858,-1.0258603 293.60075,46 293.60075,46"
         id="path835-9"
         inkscape:connector-curvature="0"
         sodipodi:nodetypes="csc" />
      <path
         style="fill:none;stroke:#656565;stroke-width:0.264583px;stroke-linecap:butt;stroke-linejoin:miter;stroke-opacity:1"
         d="m 3.3992545,102 c 0,0 11.8990335,44.31907 146.8549855,-27.053258 C 291.39921,0.30131165 293.60075,43 293.60075,43"
         id="path835-1"
         inkscape:connector-curvature="0"
         sodipodi:nodetypes="csc" />
      <path
         style="fill:none;stroke:#656565;stroke-width:0.264583px;stroke-linecap:butt;stroke-linejoin:miter;stroke-opacity:1"
         d="m 3.3992515,94 c 0,0 7.6118285,46.64337 146.8549885,-23.053258 C 289.49738,1.2501159 293.60075,40 293.60075,40"
         id="path835-2"
         inkscape:connector-curvature="0"
         sodipodi:nodetypes="csc" />
      <path
         style="fill:none;stroke:#656565;stroke-width:0.264583px;stroke-linecap:butt;stroke-linejoin:miter;stroke-opacity:1"
         d="m 3.399253,86 c 0,0 6.5413163,48.4623 146.854987,-19.053258 C 284.32672,2.4342983 293.60075,37 293.60075,37"
         id="path835-0"
         inkscape:connector-curvature="0"
         sodipodi:nodetypes="csc" />
      <path
         inkscape:connector-curvature="0"
         id="path1002"
         d="m 14.852662,109.20262 c -0.668219,-0.0212 -1.341934,0.18766 -2.038178,0.6102 -0.699384,0.43259 -1.155564,1.00739 -1.37549,1.7112 -0.138233,0.44239 -0.144158,0.99234 -0.01837,1.61656 0.12263,0.63428 0.443565,1.16497 0.939522,1.59584 0.178912,0.10011 0.23822,0.22895 0.194234,0.3697 -0.01589,0.0503 -0.101949,0.0785 -0.285873,0.0652 -0.844914,-0.51784 -1.446879,-1.24671 -1.802109,-2.16334 -0.352075,-0.9267 -0.390541,-1.86574 -0.109086,-2.83727 0.353841,-1.02614 0.96789,-1.89374 1.839017,-2.59271 0.884347,-0.70587 1.858341,-1.0968 2.921993,-1.17277 l 0.419891,-3.78661 c -1.954285,0.80195 -3.631984,1.7455 -5.049483,2.84764 -1.4143523,1.09206 -2.3926943,2.45282 -2.9451153,4.07908 -0.209227,0.74026 -0.2811,1.50136 -0.212501,2.27324 0.06542,0.78194 0.293941,1.53759 0.679275,2.28704 0.783891,1.49204 2.0801163,2.54821 3.8653713,3.17227 0.627215,0.15258 1.31707,0.24596 2.079132,0.28549 z m 0.757108,0.12617 -0.843708,8.22313 c 1.746923,-0.13837 2.94713,-1.2532 3.594334,-3.3244 0.126118,-0.72209 0.119281,-1.40847 -0.0506,-2.06854 -0.156657,-0.66697 -0.461886,-1.24794 -0.925771,-1.74605 -0.463878,-0.4981 -1.048578,-0.85738 -1.774251,-1.08414 z m 1.201268,-11.102186 c 0.395433,-0.09716 0.888394,-0.329386 1.45557,-0.692925 0.564031,-0.353484 1.146268,-0.800608 1.730336,-1.32441 0.597288,-0.530709 1.117094,-1.096667 1.559401,-1.69788 0.439162,-0.591155 0.747965,-1.189933 0.930191,-1.77309 0.07854,-0.251358 0.136931,-0.50901 0.155666,-0.745954 0.07278,-0.374556 0.04989,-0.690715 -0.08191,-0.941594 -0.134946,-0.240822 -0.345428,-0.416946 -0.647786,-0.511429 -0.604738,-0.188953 -1.265235,0.01298 -1.981503,0.605834 -0.573985,0.52696 -1.125203,1.193453 -1.617128,1.988851 -0.505153,0.802295 -0.906365,1.626025 -1.19985,2.494465 -0.260685,1.011118 -0.353875,1.875926 -0.302965,2.598137 z m -0.817189,0.384742 c 0.05542,-1.770532 0.32184,-3.50824 0.799258,-5.213121 0.349433,-1.08272 0.777571,-2.063573 1.284558,-2.942554 0.496898,-0.882123 1.043664,-1.605196 1.646583,-2.189325 0.592835,-0.587279 1.192742,-0.984732 1.789626,-1.19553 0.533928,-0.18631 0.899778,-0.259598 1.071124,-0.206062 0.131034,0.04089 0.226171,0.125887 0.298693,0.247846 0.07251,0.121974 0.156408,0.313737 0.254839,0.565219 0.668421,2.07396 0.632229,4.31402 -0.115503,6.706962 -0.354994,1.136156 -0.851797,2.19489 -1.499755,3.206384 -0.634741,1.004601 -1.394872,1.914835 -2.274112,2.710595 -0.892464,0.80266 -1.844874,1.44313 -2.870443,1.9283 l -0.421472,4.21652 c 0.459182,0.0883 0.774116,0.14256 0.945465,0.19604 0.765997,0.23932 1.401082,0.6144 1.935509,1.13454 0.534436,0.52015 0.943592,1.12257 1.214265,1.81412 0.273815,0.68152 0.421707,1.41197 0.443673,2.19136 0.0119,0.77624 -0.08643,1.55115 -0.325204,2.31528 -0.370754,1.18641 -1.022487,2.17467 -1.952122,2.95468 -0.929635,0.78001 -2.090026,1.20098 -3.494401,1.2698 -0.07327,0.51788 -0.155283,1.27582 -0.229523,2.25691 -0.08747,0.98798 -0.16564,1.76921 -0.234493,2.34362 -0.06891,0.57443 -0.191952,1.10985 -0.352203,1.62263 -0.248197,0.7943 -0.65963,1.43827 -1.237411,1.94196 -0.587858,0.50054 -1.262771,0.81938 -2.034785,0.95337 -0.7619483,0.13713 -1.5410313,0.0813 -2.3271793,-0.16434 -1.10869,-0.34638 -1.9788411,-0.96047 -2.6136563,-1.83203 -0.6316834,-0.88162 -0.8143796,-1.85471 -0.5216699,-2.93309 0.1778929,-0.46309 0.4270009,-0.87084 0.7605271,-1.23014 0.3335327,-0.35929 0.712478,-0.6161 1.146922,-0.76729 0.4275131,-0.16439 0.8847311,-0.17604 1.3678621,-0.0582 0.39308,0.12278 0.731431,0.34994 1.018206,0.67131 0.273566,0.32828 0.464667,0.70804 0.5600703,1.14618 0.08534,0.43501 0.06739,0.88188 -0.07085,1.32427 -0.185333,0.59322 -0.544028,1.03293 -1.075994,1.3192 -0.531961,0.28625 -1.111957,0.33677 -1.726771,0.14466 l -0.2318223,-0.0724 c 0.2045754,0.72609 0.7522293,1.23934 1.6492373,1.51964 0.453554,0.14172 0.948584,0.1861 1.468764,0.14994 0.533411,-0.043 1.005023,-0.17155 1.438167,-0.38937 0.433135,-0.21781 0.761689,-0.49036 0.965493,-0.82398 0.30016,-0.35867 0.559867,-0.90658 0.782938,-1.62044 0.150818,-0.48261 0.25117,-0.98099 0.311248,-1.49194 0.05692,-0.50092 0.113772,-1.17843 0.167339,-2.02251 0.05041,-0.83402 0.09782,-1.48137 0.146,-1.9188 -0.651858,-0.0381 -1.301883,-0.15297 -1.957006,-0.35768 -1.098567,-0.34336 -2.067586,-0.88887 -2.903859,-1.64681 -0.836262,-0.75794 -1.498172,-1.649 -1.9926637,-2.68642 -0.4844209,-1.03425 -0.7761588,-2.11866 -0.8689226,-3.27334 -0.085845,-1.14146 0.035524,-2.27336 0.3710399,-3.3825 0.3607759,-1.01294 0.8601614,-1.93843 1.5120444,-2.75006 0.655018,-0.82169 1.395122,-1.5616 2.227238,-2.20654 0.832116,-0.64494 1.6624,-1.21321 2.487708,-1.69473 0.83224,-0.46833 1.915673,-1.06786 3.267313,-1.782231 z"
         style="display:inline;fill:#656565;fill-opacity:1;stroke:#656565;stroke-width:0.0138993px;stroke-linecap:butt;stroke-linejoin:miter;stroke-opacity:1" />
      <path
         style="display:inline;fill:#656565;fill-opacity:1;stroke:#656565;stroke-width:0.253742px;stroke-linecap:butt;stroke-linejoin:miter;stroke-opacity:1"
         d="m 27.585177,97.936459 1.466447,-4.266268 1.985971,0.122882 -1.458965,4.244503 z m 3.926316,0.19554 -1.369878,-0.0713 1.458965,-4.244501 1.366761,0.08036 0.606032,-1.763103 -1.366762,-0.08036 1.490691,-4.336802 -0.510608,-0.175517 -1.535895,4.468309 -1.993142,-0.102004 1.44954,-4.217084 -0.481587,-0.165532 -1.50472,4.377614 -1.367072,-0.07947 -0.607278,1.766728 1.366761,0.08036 -1.45616,4.236341 -1.36645,-0.08124 -0.604787,1.759482 1.366761,0.08036 -1.482277,4.31233 0.481608,0.16544 1.535273,-4.466505 1.98535,0.124647 -1.442059,4.195328 0.51061,0.1755 1.496303,-4.353125 1.367074,0.07947 z"
         id="path1020-2"
         inkscape:connector-curvature="0" />
      <path
         inkscape:connector-curvature="0"
         id="path1020-2-7"
         d="m 34.696768,108.34856 0.909178,-4.41871 1.985388,-0.13197 -0.904539,4.39617 z m 3.91911,-0.30786 -1.367756,0.10434 0.904537,-4.39616 1.365824,-0.0949 0.375731,-1.82609 -1.365824,0.0949 0.924206,-4.49175 -0.528854,-0.108813 -0.952233,4.627963 -1.989834,0.15357 0.898695,-4.367761 -0.498794,-0.102626 -0.932908,4.534037 -1.366017,0.0959 -0.376503,1.82986 1.365824,-0.095 -0.902801,4.38772 -1.365629,0.094 -0.374959,1.82235 1.365824,-0.095 -0.918991,4.46641 0.498798,0.10257 0.951849,-4.62609 1.985001,-0.13009 -0.894057,4.34522 0.528852,0.10883 0.927688,-4.50868 1.366021,-0.0959 z"
         style="display:inline;fill:#656565;fill-opacity:1;stroke:#656565;stroke-width:0.253742px;stroke-linecap:butt;stroke-linejoin:miter;stroke-opacity:1" />
      <path
         style="display:inline;fill:#656565;fill-opacity:1;stroke:#656565;stroke-width:0.0597366px;stroke-linecap:butt;stroke-linejoin:miter;stroke-opacity:1"
         d="m 55.437394,84.550512 c 1.734843,3.038915 3.417847,4.736693 4.469499,5.660653 0.830515,0.729639 5.272835,3.875637 1.449455,10.195845 1.982855,-5.959668 0.573723,-9.154876 -4.54704,-10.57084 l 1.546419,11.86581 c 0.789191,4.86752 -4.006774,6.21253 -5.585627,4.67829 -1.845355,-1.7866 -0.302224,-5.93223 4.855622,-5.03852 z"
         id="path1107-9"
         inkscape:connector-curvature="0"
         sodipodi:nodetypes="cccccccc" />
      <path
         sodipodi:nodetypes="cccccccc"
         inkscape:connector-curvature="0"
         id="path1107-9-2"
         d="m 122.01333,75.643533 c 1.6543,1.805302 3.03918,2.643802 3.88046,3.067788 0.6644,0.334807 4.08492,1.573156 2.72912,7.098495 0.23135,-4.823555 -1.24022,-6.820576 -4.79429,-6.634184 l 3.08549,8.294603 c 1.36561,3.365672 -1.49312,5.490428 -2.78202,4.746501 -1.50532,-0.864674 -1.23863,-4.259036 2.24748,-4.835551 z"
         style="display:inline;fill:#656565;fill-opacity:1;stroke:#656565;stroke-width:0.0427909px;stroke-linecap:butt;stroke-linejoin:miter;stroke-opacity:1" />
      <path
         style="display:inline;fill:#656565;fill-opacity:1;stroke:#656565;stroke-width:0.0394281px;stroke-linecap:butt;stroke-linejoin:miter;stroke-opacity:1"
         d="m 140.21898,64.491578 c 1.60768,1.582974 2.92173,2.289044 3.71593,2.639396 0.62721,0.276658 3.83335,1.254366 2.84714,6.402915 -0.0153,-4.449573 -1.46391,-6.217613 -4.72554,-5.877957 l 3.23166,7.486712 c 1.41586,3.03248 -1.11423,5.122919 -2.33546,4.499334 -1.42611,-0.724457 -1.34127,-3.860561 1.83936,-4.55599 z"
         id="path1107-9-2-0"
         inkscape:connector-curvature="0"
         sodipodi:nodetypes="cccccccc" />
      <path
         style="fill:#656565;stroke-width:0.0925874"
         d="m 85.388018,96.478322 c -2.383265,0.0117 -2.846564,-2.83001 -0.790447,-4.84835 1.193755,-1.171812 2.253449,-1.530046 3.849399,-1.301302 0.04315,0.0061 -1.091377,-3.291604 -2.521201,-7.328441 l -2.59968,-7.339719 5.788614,-1.898855 5.788604,-1.898855 2.932144,8.354016 2.932159,8.354008 -0.0893,0.557869 c -0.53362,3.329929 -5.479646,5.151969 -6.279374,2.313239 -0.672863,-2.388402 2.428485,-5.379782 4.893947,-4.72042 l 0.30187,0.08072 -2.095073,-5.91503 -2.095064,-5.91503 -5.252711,1.723063 -5.252714,1.723064 2.424205,6.844295 2.424206,6.844288 -0.08491,0.61461 c -0.262789,1.90217 -2.362373,3.74743 -4.274643,3.75684 z"
         id="path837"
         inkscape:connector-curvature="0" />
      <path
         inkscape:connector-curvature="0"
         id="path837-9"
         d="m 210.36959,49.851246 c -1.08572,0.06897 -1.37271,-1.213604 -0.48965,-2.188239 0.51269,-0.565856 0.98602,-0.757393 1.71939,-0.695768 0.0198,0.0017 -0.58522,-1.470811 -1.34456,-3.27218 l -1.38062,-3.275223 2.58712,-1.019845 2.58712,-1.019844 1.55918,3.72855 1.55921,3.728549 -0.0258,0.256601 c -0.15426,1.531662 -2.35946,2.494007 -2.79969,1.22178 -0.37039,-1.070406 0.96301,-2.516355 2.10409,-2.281715 l 0.13971,0.02872 -1.11263,-2.639482 -1.11263,-2.639479 -2.3476,0.925428 -2.3476,0.925432 1.28743,3.054149 1.28742,3.054145 -0.0223,0.282341 c -0.069,0.873816 -0.97645,1.770741 -1.84759,1.826086 z"
         style="display:inline;fill:#656565;stroke-width:0.0422636" />
      <path
         inkscape:connector-curvature="0"
         id="path837-28-9"
         d="m 165.32465,65.246584 c 0.5708,-0.136932 0.91603,-0.025 1.18342,0.38365 0.0417,0.06393 0.1168,0.208471 0.16655,0.321275 0.16007,0.362736 0.20387,0.699304 0.13427,1.031948 -0.12986,0.619869 -0.59377,1.233141 -1.24222,1.642165 -0.19801,0.124908 -0.59394,0.282556 -0.79852,0.317948 -0.17145,0.02968 -0.40082,0.02598 -0.53558,-0.0086 -0.0581,-0.01492 -0.10863,-0.02605 -0.11234,-0.02479 -0.004,0.0013 0.68518,2.015455 1.53091,4.475946 l 1.53766,4.473621 -0.13877,0.0477 -0.13878,0.0477 -1.72968,-5.032893 c -1.68749,-4.910187 -1.72988,-5.036992 -1.75063,-5.196665 -0.0254,-0.19536 0.006,-0.479662 0.0752,-0.694658 0.0679,-0.209751 0.24536,-0.558972 0.37965,-0.746752 0.1388,-0.194083 0.44374,-0.509193 0.62623,-0.647123 0.25808,-0.195047 0.51728,-0.319589 0.81264,-0.390443 z m 0.30957,0.451058 c -0.36833,0.219991 -0.73814,0.598723 -1.09849,1.124989 -0.1251,0.182722 -0.41376,0.774787 -0.48392,0.992536 -0.14135,0.438813 -0.0693,0.735367 0.18861,0.776199 0.0779,0.01235 0.10101,0.0079 0.22272,-0.0425 0.37063,-0.153459 0.80715,-0.601017 1.32936,-1.363082 0.2713,-0.395868 0.49253,-0.937103 0.50085,-1.225274 0.006,-0.208551 -0.10814,-0.35101 -0.29726,-0.370867 -0.11556,-0.01214 -0.20581,0.01478 -0.36186,0.107998 z"
         style="display:inline;fill:#656565;stroke-width:0.0172646" />
      <path
         style="display:inline;fill:#656565;stroke-width:0.0167273"
         d="m 194.98461,45.034499 c 0.55182,-0.137577 0.88727,-0.03212 1.14984,0.361515 0.041,0.06159 0.11494,0.200972 0.16413,0.309832 0.15819,0.350056 0.20353,0.67576 0.13888,0.998644 -0.12047,0.601672 -0.56466,1.199826 -1.18939,1.601681 -0.19078,0.122725 -0.573,0.278861 -0.77091,0.314909 -0.16583,0.03023 -0.38809,0.02865 -0.51896,-0.0037 -0.0565,-0.01395 -0.10547,-0.02432 -0.10904,-0.02304 -0.004,0.0013 0.68116,1.94676 1.5217,4.323308 l 1.52824,4.320999 -0.13405,0.04742 -0.13405,0.04741 -1.71907,-4.861191 c -1.67715,-4.742673 -1.7193,-4.865161 -1.74078,-5.019679 -0.0257,-0.189111 10e-4,-0.464767 0.067,-0.673663 0.0639,-0.203802 0.23291,-0.543664 0.36139,-0.726748 0.1328,-0.189229 0.42553,-0.497144 0.60116,-0.632345 0.24834,-0.19119 0.49841,-0.31408 0.78395,-0.385267 z m 0.30381,0.43434 c -0.35498,0.216303 -0.71,0.586415 -1.0546,1.099383 -0.11963,0.178104 -0.3942,0.754203 -0.4603,0.965771 -0.13317,0.426353 -0.0608,0.713051 0.18938,0.750393 0.0756,0.0113 0.098,0.0068 0.21542,-0.04308 0.35774,-0.151865 0.77681,-0.589232 1.27621,-1.332044 0.25944,-0.385867 0.46912,-0.912139 0.47471,-1.191405 0.004,-0.202099 -0.10784,-0.339135 -0.2912,-0.356751 -0.11208,-0.01076 -0.19927,0.01602 -0.34965,0.107748 z"
         id="path837-28-9-7"
         inkscape:connector-curvature="0" />
      <path
         inkscape:connector-curvature="0"
         id="path837-2-3"
         d="m 179.32314,60.286306 c -0.29113,0.06011 -0.50606,0.04561 -0.73864,-0.04983 -0.29265,-0.120107 -0.49325,-0.340079 -0.56893,-0.62386 -0.0478,-0.179271 -0.0633,-0.341407 -0.0505,-0.527115 0.0494,-0.714478 0.51828,-1.474595 1.19715,-1.940535 0.1795,-0.123219 0.52379,-0.26301 0.7184,-0.291772 0.18088,-0.02673 0.32386,-0.02442 0.4773,0.0077 l 0.1169,0.02444 -1.79028,-4.319957 -1.79026,-4.319989 0.13226,-0.05481 0.13226,-0.05482 1.98406,4.799422 1.98407,4.799425 0.0152,0.137108 c 0.0828,0.755311 -0.37039,1.588067 -1.14744,2.108742 -0.18327,0.122817 -0.51385,0.273417 -0.67157,0.305995 z"
         style="display:inline;fill:#656565;stroke-width:0.0168207" />
      <path
         style="display:inline;fill:#656565;fill-opacity:1;stroke:#656565;stroke-width:0.0231364px;stroke-linecap:butt;stroke-linejoin:miter;stroke-opacity:1"
         d="m 228.44861,32.807954 c 0.86412,1.04408 1.61922,1.579895 2.08195,1.862465 0.36543,0.22314 2.2697,1.127943 1.23138,3.793794 0.36006,-2.405835 -0.39017,-3.531218 -2.43821,-3.730788 l 1.37948,4.424518 c 0.62495,1.804702 -1.11546,2.636968 -1.81995,2.156623 -0.82296,-0.558906 -0.50998,-2.243337 1.51745,-2.245503 z"
         id="path1107-6"
         inkscape:connector-curvature="0"
         sodipodi:nodetypes="cccccccc" />
      <path
         inkscape:connector-curvature="0"
         id="path837-2-1"
         d="m 242.46253,37.013863 c -0.17298,-0.0057 -0.29264,-0.04324 -0.41126,-0.128992 -0.14926,-0.107912 -0.23279,-0.259786 -0.2369,-0.430733 -0.003,-0.107984 0.0108,-0.201889 0.0432,-0.305238 0.12541,-0.39766 0.49455,-0.763905 0.94237,-0.934998 0.1184,-0.04526 0.33236,-0.07738 0.44641,-0.06717 0.10608,0.0096 0.18665,0.03037 0.26912,0.06946 l 0.0628,0.02979 -0.42384,-2.689387 -0.42384,-2.689388 0.0824,-0.01298 0.0824,-0.01297 0.46825,2.987169 0.46826,2.987171 -0.01,0.07967 c -0.0563,0.438798 -0.42632,0.848308 -0.93718,1.036984 -0.12049,0.0445 -0.32814,0.08463 -0.42186,0.08157 z"
         style="display:inline;fill:#656565;stroke-width:0.00979313" />
      <path
         inkscape:connector-curvature="0"
         id="path837-28-2"
         d="m 254.88075,30.768431 c -0.31399,-0.01253 -0.47557,-0.120453 -0.55385,-0.369907 -0.0123,-0.03902 -0.0298,-0.124396 -0.0391,-0.189762 -0.0297,-0.210175 -0.004,-0.38995 0.0811,-0.551189 0.15712,-0.300454 0.48539,-0.548886 0.879,-0.665229 0.12021,-0.03553 0.34712,-0.05911 0.45768,-0.04757 0.0926,0.0096 0.21027,0.04496 0.27467,0.0824 0.0278,0.01615 0.0522,0.02924 0.0542,0.02912 0.002,-1.01e-4 -0.0599,-1.138075 -0.13742,-2.528809 l -0.14106,-2.528612 0.0785,-0.0044 0.0785,-0.0044 0.15857,2.844688 c 0.1547,2.775331 0.15839,2.846812 0.14553,2.932114 -0.0151,0.104339 -0.0728,0.246287 -0.13987,0.346937 -0.0654,0.09819 -0.20776,0.252269 -0.30429,0.329465 -0.0997,0.07979 -0.30272,0.197747 -0.41682,0.242245 -0.16134,0.06292 -0.31301,0.08935 -0.47548,0.08288 z m -0.0938,-0.277445 c 0.22179,-0.05972 0.46743,-0.201017 0.7297,-0.419699 0.091,-0.07592 0.32593,-0.338942 0.39378,-0.440914 0.13669,-0.2055 0.14272,-0.368774 0.0157,-0.427346 -0.0384,-0.01768 -0.0509,-0.01876 -0.12093,-0.01054 -0.21328,0.02511 -0.50331,0.192162 -0.88329,0.508762 -0.19738,0.164463 -0.39014,0.411104 -0.43637,0.558359 -0.0334,0.10657 0.005,0.19658 0.0992,0.234334 0.0578,0.02308 0.10819,0.02234 0.20216,-0.003 z"
         style="display:inline;fill:#656565;stroke-width:0.00924285" />
      <path
         style="display:inline;fill:#656565;stroke-width:0.0257751"
         d="m 266.32409,30.959846 c -0.63549,-0.185528 -0.51327,-0.97643 0.20853,-1.349377 0.41906,-0.216525 0.73214,-0.227726 1.13726,-0.04067 0.0111,0.0051 -0.006,-0.96001 -0.038,-2.144605 l -0.0578,-2.153812 1.70517,-0.0458 1.70516,-0.0458 0.0588,2.44933 0.0588,2.449331 -0.072,0.140988 c -0.42981,0.841561 -1.90401,0.933665 -1.87162,0.116934 0.0272,-0.687163 1.1114,-1.235635 1.7108,-0.865488 l 0.0733,0.04532 -0.0466,-1.735743 -0.0466,-1.735742 -1.54728,0.04156 -1.5473,0.04156 0.0539,2.008431 0.0539,2.008431 -0.0756,0.156401 c -0.23435,0.484059 -0.95276,0.807626 -1.46266,0.658763 z"
         id="path837-5-9"
         inkscape:connector-curvature="0" />
    </g>
  </g>
  <g
     inkscape:groupmode="layer"
     id="layer2"
     inkscape:label="Sheet2"
     style="display:inline">
    <g
       id="g1617"
       transform="translate(0,31.750014)">
      <g
         transform="matrix(1.0326708,0,0,1,-4.847714,-11.112501)"
         id="g1000">
        <path
           style="fill:none;stroke:#656565;stroke-width:0.264583px;stroke-linecap:butt;stroke-linejoin:miter;stroke-opacity:1"
           d="m 8.1623501,81.120833 c 0,0 4.4301549,4.43419 49.3259809,-15.766049 C 174.20419,12.840142 206.76846,12.670321 288.83765,67"
           id="path947"
           inkscape:connector-curvature="0"
           sodipodi:nodetypes="csc" />
        <path
           sodipodi:nodetypes="csc"
           inkscape:connector-curvature="0"
           id="path947-9"
           d="m 8.1623506,89.120833 c 0,0 0.7416218,5.659994 46.0523024,-13.591685 C 175.57413,23.965726 206.09296,23.157664 288.83765,73"
           style="fill:none;stroke:#656565;stroke-width:0.264583px;stroke-linecap:butt;stroke-linejoin:miter;stroke-opacity:1" />
        <path
           sodipodi:nodetypes="csc"
           inkscape:connector-curvature="0"
           id="path947-3"
           d="m 8.1623517,77.120833 c 0,0 4.5171353,3.987826 49.4493693,-16.131296 C 172.75464,9.4324621 208.03245,6.3396276 288.83765,64"
           style="fill:none;stroke:#656565;stroke-width:0.264583px;stroke-linecap:butt;stroke-linejoin:miter;stroke-opacity:1" />
        <path
           sodipodi:nodetypes="csc"
           inkscape:connector-curvature="0"
           id="path947-6"
           d="m 8.1623507,93.120833 c 0,0 -2.1451007,6.260236 43.3543113,-12.541054 C 175.82223,29.214178 208.59812,28.787999 288.83765,76"
           style="fill:none;stroke:#656565;stroke-width:0.264583px;stroke-linecap:butt;stroke-linejoin:miter;stroke-opacity:1" />
        <path
           sodipodi:nodetypes="csc"
           inkscape:connector-curvature="0"
           id="path947-0"
           d="m 8.1623503,85.120833 c 0,0 2.7529327,5.113108 47.8038977,-14.738725 C 174.0098,18.365887 206.22013,17.712888 288.83765,70"
           style="fill:none;stroke:#656565;stroke-width:0.264583px;stroke-linecap:butt;stroke-linejoin:miter;stroke-opacity:1" />
      </g>
      <path
         style="display:inline;fill:#656565;fill-opacity:1;stroke:#656565;stroke-width:0.00880333px;stroke-linecap:butt;stroke-linejoin:miter;stroke-opacity:1"
         d="m 14.559183,75.18097 c -0.391855,0.160468 -0.727425,0.455379 -1.020785,0.879669 -0.292577,0.430912 -0.407771,0.881188 -0.35301,1.344989 0.03442,0.291532 0.173152,0.611057 0.407239,0.939475 0.234858,0.335053 0.557607,0.558953 0.955752,0.67989 0.129321,0.01165 0.196923,0.0708 0.207873,0.163564 0.0038,0.03315 -0.03865,0.07174 -0.148448,0.111583 -0.622401,-0.08102 -1.158872,-0.346872 -1.601209,-0.785064 -0.443117,-0.444826 -0.708088,-0.977858 -0.796475,-1.612359 -0.06064,-0.684804 0.07015,-1.345182 0.393173,-1.974517 0.328886,-0.636743 0.791019,-1.114548 1.386406,-1.433414 l -0.736003,-2.298024 c -0.922708,0.968863 -1.648887,1.948107 -2.183626,2.951781 -0.535519,0.997046 -0.749477,2.036744 -0.64853,3.119875 0.07038,0.482113 0.225547,0.940772 0.464733,1.369363 0.23995,0.435218 0.567408,0.813076 0.983941,1.146825 0.838932,0.660094 1.861439,0.935735 3.055019,0.835116 0.402078,-0.07404 0.825133,-0.198205 1.275985,-0.372358 z m 0.470392,-0.122721 1.637725,4.972849 c 0.974337,-0.531561 1.380146,-1.48642 1.218995,-2.851318 -0.113723,-0.450126 -0.295101,-0.845232 -0.563952,-1.182985 -0.262984,-0.345163 -0.589646,-0.60219 -0.986628,-0.770296 -0.396976,-0.168107 -0.827929,-0.224711 -1.30614,-0.168247 z M 12.854397,68.32825 c 0.203533,-0.158395 0.428545,-0.420095 0.662526,-0.776907 0.234762,-0.350189 0.455845,-0.759225 0.658169,-1.21307 0.208182,-0.461257 0.36245,-0.922868 0.462795,-1.384831 0.101121,-0.455334 0.1249,-0.88138 0.07953,-1.265674 -0.01944,-0.165649 -0.05236,-0.329723 -0.102814,-0.471564 -0.05476,-0.235383 -0.149695,-0.412279 -0.290752,-0.523273 -0.140277,-0.104363 -0.307507,-0.151797 -0.50676,-0.128269 -0.398513,0.04706 -0.728225,0.334553 -0.98914,0.862498 -0.195677,0.453065 -0.342121,0.980926 -0.420961,1.567996 -0.0847,0.594477 -0.103773,1.17448 -0.04899,1.752489 0.110632,0.652033 0.280286,1.176165 0.496409,1.580607 z m -0.373062,0.433698 c -0.425612,-1.038082 -0.720741,-2.111722 -0.885378,-3.220921 -0.07782,-0.716374 -0.0838,-1.394188 -0.01786,-2.03348 0.0593,-0.638501 0.188546,-1.197928 0.386171,-1.691528 0.190983,-0.492815 0.435125,-0.877699 0.725765,-1.153875 0.260568,-0.24574 0.453166,-0.382683 0.566079,-0.396018 0.08635,-0.01023 0.163316,0.01431 0.236776,0.0661 0.07345,0.05179 0.171535,0.140979 0.293454,0.260948 0.922586,1.026423 1.480684,2.331021 1.666876,3.907943 0.08841,0.748708 0.07483,1.489305 -0.03838,2.241656 -0.107342,0.744951 -0.31158,1.46775 -0.614279,2.155143 -0.308563,0.694803 -0.693708,1.311324 -1.161302,1.85695 l 0.846212,2.547016 c 0.288327,-0.06765 0.484463,-0.117648 0.597361,-0.131039 0.504772,-0.05963 0.968943,-0.0069 1.412409,0.155709 0.443473,0.162616 0.835769,0.405177 1.171038,0.735087 0.334485,0.323284 0.608812,0.707415 0.822978,1.152398 0.207524,0.445761 0.350976,0.919244 0.410431,1.422801 0.09229,0.781837 -0.0291,1.521727 -0.365008,2.213041 -0.335909,0.691317 -0.898053,1.234679 -1.692299,1.637483 0.09149,0.318388 0.239995,0.777841 0.450668,1.364315 0.204801,0.593879 0.361539,1.065798 0.470208,1.415737 0.108627,0.349957 0.175892,0.691355 0.215776,1.029273 0.0618,0.523435 -0.0096,1.002136 -0.213521,1.44273 -0.210528,0.441376 -0.518358,0.800192 -0.930116,1.077223 -0.405126,0.276247 -0.870036,0.445348 -1.388098,0.506518 -0.730604,0.08628 -1.39247,-0.04385 -1.984821,-0.383717 -0.593136,-0.346483 -0.950305,-0.861915 -1.059802,-1.561115 -0.01687,-0.313749 0.0218,-0.613911 0.121773,-0.907879 0.09998,-0.293964 0.252713,-0.540412 0.464838,-0.740126 0.204703,-0.20556 0.466065,-0.330475 0.775888,-0.387207 0.259024,-0.03061 0.513382,0.01327 0.762273,0.124982 0.243036,0.119096 0.451697,0.289285 0.620116,0.517966 0.161785,0.229473 0.266919,0.492499 0.301341,0.784031 0.04619,0.390913 -0.0476,0.737882 -0.281165,1.040914 -0.233598,0.303023 -0.555904,0.482154 -0.961057,0.529994 l -0.152767,0.01801 c 0.305974,0.366959 0.755306,0.522169 1.346427,0.45238 0.298879,-0.03532 0.596595,-0.137581 0.888025,-0.292958 0.297306,-0.162756 0.536778,-0.358981 0.730927,-0.596885 0.194143,-0.23791 0.313669,-0.480429 0.345275,-0.726014 0.08084,-0.284983 0.08939,-0.668923 0.03385,-1.139353 -0.03754,-0.318035 -0.108338,-0.632144 -0.205673,-0.943121 -0.09658,-0.304345 -0.238824,-0.710791 -0.42603,-1.212697 -0.186438,-0.495282 -0.326358,-0.881846 -0.411567,-1.147225 -0.386778,0.14643 -0.792313,0.248065 -1.224034,0.299033 -0.72396,0.08544 -1.425278,0.02048 -2.104744,-0.201599 -0.679458,-0.222118 -1.292518,-0.566254 -1.8466,-1.038287 -0.54744,-0.472766 -0.996432,-1.024384 -1.3485396,-1.66806 -0.3446908,-0.637828 -0.567094,-1.323684 -0.6597902,-2.051732 -0.053217,-0.678961 -0.0037,-1.343182 0.1634349,-1.980982 0.1663483,-0.644424 0.4030318,-1.263564 0.7174669,-1.851572 0.314435,-0.588012 0.647632,-1.131206 1.00037,-1.622969 0.360162,-0.485919 0.831651,-1.112631 1.428541,-1.875066 z"
         id="path1002-6"
         inkscape:connector-curvature="0" />
      <path
         inkscape:connector-curvature="0"
         id="path1020"
         d="m 18.824469,65.080496 -0.533297,-2.378564 0.948713,-0.50586 0.530577,2.366428 z m 1.862223,-1.021883 -0.650598,0.35511 -0.530575,-2.366429 0.65173,-0.350052 -0.220394,-0.982978 -0.65173,0.350052 -0.542113,-2.417887 -0.28468,0.06383 0.558554,2.491208 -0.946108,0.517489 -0.527148,-2.351144 -0.2685,0.06019 0.547215,2.440644 -0.651615,0.350558 0.220847,0.985002 0.65173,-0.350054 0.529556,2.361878 -0.651844,0.349548 0.219941,0.980956 0.65173,-0.350056 0.539052,2.404237 0.268499,-0.0602 -0.558326,-2.490196 0.948939,-0.504849 0.524429,2.339007 0.284679,-0.06383 -0.544154,-2.42699 0.651617,-0.350559 z"
         style="fill:#656565;fill-opacity:1;stroke:#656565;stroke-width:0.137106px;stroke-linecap:butt;stroke-linejoin:miter;stroke-opacity:1" />
      <path
         style="display:inline;fill:#656565;fill-opacity:1;stroke:#656565;stroke-width:0.137106px;stroke-linecap:butt;stroke-linejoin:miter;stroke-opacity:1"
         d="m 24.117407,69.662087 -0.533297,-2.378564 0.948713,-0.50586 0.530577,2.366428 z m 1.862223,-1.021883 -0.650598,0.35511 -0.530575,-2.366429 0.65173,-0.350052 -0.220394,-0.982978 -0.65173,0.350052 -0.542113,-2.417887 -0.28468,0.06383 0.558554,2.491208 -0.946108,0.517489 -0.527148,-2.351144 -0.2685,0.06019 0.547215,2.440644 -0.651615,0.350558 0.220847,0.985002 0.65173,-0.350054 0.529556,2.361878 -0.651844,0.349548 0.219941,0.980956 0.65173,-0.350056 0.539052,2.404237 0.268499,-0.0602 -0.558326,-2.490196 0.948939,-0.504849 0.524429,2.339007 0.284679,-0.06383 -0.544154,-2.42699 0.651617,-0.350559 z"
         id="path1020-8"
         inkscape:connector-curvature="0" />
      <path
         style="display:inline;fill:#656565;fill-opacity:1;stroke:#656565;stroke-width:0.0403613px;stroke-linecap:butt;stroke-linejoin:miter;stroke-opacity:1"
         d="m 251.10389,27.2423 c 0.0236,2.379094 0.4554,3.94233 0.76996,4.837592 0.24841,0.706985 1.82464,4.037805 -2.48381,6.548518 3.11133,-2.899577 3.32977,-5.264947 0.79009,-7.78777 l -2.97296,7.575032 c -1.12877,3.158165 -4.38076,2.386429 -4.80492,0.954759 -0.49789,-1.669392 1.76243,-3.632645 4.49466,-1.408744 z"
         id="path1107"
         inkscape:connector-curvature="0"
         sodipodi:nodetypes="cccccccc" />
      <path
         style="display:inline;fill:#656565;stroke-width:0.0806577"
         d="m 215.4472,34.470893 c -1.66519,-1.18248 -0.51163,-3.452402 1.9681,-3.872772 1.43969,-0.244053 2.36348,0.0285 3.35567,0.990069 0.0268,0.02598 0.95006,-2.906436 2.05154,-6.516582 l 2.00269,-6.563898 5.01603,1.530427 5.01602,1.530424 -2.29808,7.457602 -2.29808,7.457601 -0.352,0.355489 c -2.10115,2.121946 -6.49071,0.957456 -5.57292,-1.478417 0.7722,-2.049445 4.48496,-2.645503 5.8588,-0.940576 l 0.16822,0.208751 1.61395,-5.289804 1.61395,-5.289803 -4.55165,-1.388741 -4.55165,-1.38874 -1.86752,6.120839 -1.8675,6.120845 -0.37835,0.398439 c -1.17098,1.233143 -3.59108,1.507637 -4.92719,0.558845 z"
         id="path837-5"
         inkscape:connector-curvature="0" />
      <path
         inkscape:connector-curvature="0"
         id="path837-5-1"
         d="m 278.66058,53.382707 c -0.79105,-0.938717 0.20502,-2.100668 1.6994,-1.982433 0.86762,0.06864 1.36209,0.364463 1.79616,1.074552 0.0118,0.01919 0.97067,-1.565357 2.13102,-3.521226 l 2.10974,-3.556119 2.67755,1.635859 2.67753,1.635852 -2.41015,4.036942 -2.41014,4.036944 -0.25504,0.156759 c -1.52234,0.93572 -3.89083,-0.393282 -3.00701,-1.68728 0.74365,-1.088718 2.9763,-0.892128 3.52313,0.310215 l 0.0669,0.147216 1.70022,-2.865857 1.70022,-2.865855 -2.42967,-1.484409 -2.42966,-1.484413 -1.96734,3.316087 -1.96732,3.316086 -0.27648,0.178083 c -0.85577,0.551147 -2.29453,0.356108 -2.92923,-0.397092 z"
         style="display:inline;fill:#656565;stroke-width:0.0484257" />
      <path
         style="display:inline;fill:#656565;stroke-width:0.0168124"
         d="m 271.87008,46.273536 c -0.47112,-0.323732 -0.61517,-0.646468 -0.49379,-1.106282 0.019,-0.07189 0.0747,-0.220375 0.12387,-0.329911 0.15808,-0.352266 0.37306,-0.603318 0.65913,-0.769737 0.53312,-0.310079 1.27921,-0.374166 1.99781,-0.171601 0.21944,0.06185 0.59156,0.245552 0.75051,0.370489 0.13321,0.104694 0.28004,0.273065 0.34285,0.393136 0.027,0.05175 0.0519,0.09558 0.0553,0.09742 0.004,0.002 1.01159,-1.809413 2.24054,-4.025046 l 2.23444,-4.028416 0.12497,0.06931 0.12497,0.06931 -2.51398,4.53184 c -2.4527,4.421345 -2.5165,4.534838 -2.61876,4.653785 -0.12504,0.145476 -0.35076,0.308504 -0.55161,0.398357 -0.19595,0.08766 -0.56434,0.186828 -0.78774,0.212056 -0.23089,0.02607 -0.65763,0.01084 -0.87637,-0.03129 -0.30933,-0.05958 -0.5684,-0.165953 -0.81217,-0.333456 z m 0.12459,-0.517981 c 0.39925,0.123104 0.9143,0.14381 1.52992,0.0615 0.21375,-0.02858 0.83027,-0.205635 1.03353,-0.296815 0.40962,-0.183747 0.57721,-0.429178 0.43865,-0.642386 -0.0418,-0.06437 -0.0601,-0.07822 -0.17591,-0.133449 -0.3526,-0.168123 -0.96093,-0.192219 -1.85268,-0.07335 -0.46323,0.06175 -0.99902,0.254465 -1.21293,0.43628 -0.15481,0.131579 -0.18345,0.307038 -0.0746,0.456791 0.0666,0.09154 0.14485,0.139278 0.31401,0.191417 z"
         id="path837-28-94"
         inkscape:connector-curvature="0" />
      <path
         style="display:inline;fill:#656565;stroke-width:0.0185395"
         d="m 257.16579,45.928894 c -0.24891,-0.213075 -0.38135,-0.41012 -0.4552,-0.677184 -0.0929,-0.336055 -0.0367,-0.659336 0.15951,-0.916839 0.12392,-0.162669 0.25469,-0.285677 0.42514,-0.399859 0.65581,-0.439338 1.63463,-0.543921 2.49887,-0.266994 0.22853,0.07321 0.58276,0.278813 0.73918,0.428956 0.14539,0.139543 0.23991,0.265678 0.31554,0.421022 l 0.0576,0.11833 2.55525,-4.476119 2.55525,-4.476118 0.13704,0.07823 0.13703,0.07823 -2.84216,4.968607 -2.84218,4.968613 -0.10932,0.105681 c -0.6022,0.581989 -1.63365,0.749367 -2.61187,0.423841 -0.23072,-0.07675 -0.58511,-0.26311 -0.71994,-0.378521 z"
         id="path837-2-7"
         inkscape:connector-curvature="0" />
      <path
         style="display:inline;fill:#656565;stroke-width:0.0284948"
         d="m 206.36099,13.057207 c 0.94212,0.225902 1.36615,0.648995 1.45354,1.450267 0.0137,0.125322 0.0158,0.39407 0.005,0.597255 -0.0356,0.65343 -0.22399,1.181184 -0.57512,1.618406 -0.65506,0.814569 -1.79656,1.369358 -3.0566,1.485549 -0.38476,0.03549 -1.08518,-0.02902 -1.41257,-0.1301 -0.27438,-0.0847 -0.60901,-0.261859 -0.78136,-0.413659 -0.0742,-0.06543 -0.14025,-0.119658 -0.14666,-0.120561 -0.007,-0.001 -0.50093,3.477541 -1.09893,7.72988 l -1.08724,7.731515 -0.23985,-0.03374 -0.23985,-0.03374 1.2236,-8.697893 c 1.19379,-8.485822 1.22576,-8.704162 1.31526,-8.954497 0.10971,-0.306047 0.36749,-0.701263 0.63069,-0.965484 0.25675,-0.257762 0.77934,-0.638536 1.11746,-0.814208 0.34946,-0.181571 1.03392,-0.416793 1.4056,-0.483058 0.52562,-0.0937 1.00014,-0.08284 1.48763,0.03404 z m 0.1177,0.895237 c -0.70649,0.04785 -1.53398,0.328081 -2.45799,0.83242 -0.32082,0.17511 -1.18867,0.829895 -1.45484,1.09768 -0.53643,0.539641 -0.65245,1.029799 -0.30366,1.282929 0.10527,0.07643 0.14268,0.08722 0.35943,0.104229 0.66005,0.05172 1.63716,-0.27982 2.97584,-1.009804 0.6954,-0.379203 1.426,-1.009703 1.65395,-1.42736 0.16495,-0.302266 0.10359,-0.597288 -0.15958,-0.768046 -0.16094,-0.104384 -0.31382,-0.132337 -0.61315,-0.112047 z"
         id="path837-28-8"
         inkscape:connector-curvature="0" />
      <path
         inkscape:connector-curvature="0"
         id="path837-28-8-4"
         d="m 153.81377,26.671443 c 0.85232,-0.01019 1.30515,0.259437 1.55223,0.924141 0.0387,0.103952 0.0983,0.332773 0.13243,0.508517 0.10996,0.565147 0.0633,1.055838 -0.1421,1.504416 -0.38339,0.835923 -1.23767,1.554988 -2.28752,1.925438 -0.32058,0.113129 -0.93196,0.208924 -1.23301,0.193199 -0.25229,-0.01313 -0.57589,-0.09224 -0.7556,-0.184614 -0.0774,-0.03984 -0.14542,-0.07187 -0.15107,-0.07126 -0.006,5.93e-4 0.32152,3.074368 0.72709,6.830571 l 0.73742,6.829448 -0.21187,0.02287 -0.21187,0.02287 -0.82918,-7.683174 c -0.80896,-7.495849 -0.82871,-7.688985 -0.80627,-7.921804 0.0277,-0.284703 0.16247,-0.677342 0.3301,-0.959412 0.16351,-0.275171 0.52731,-0.712522 0.77792,-0.935188 0.259,-0.230141 0.79221,-0.578182 1.09502,-0.714746 0.42819,-0.19312 0.83533,-0.286039 1.27635,-0.291301 z m 0.29318,0.73833 c -0.59235,0.192946 -1.23789,0.610192 -1.91752,1.239389 -0.23596,0.218461 -0.83527,0.963901 -1.00468,1.24965 -0.34139,0.575852 -0.3348,1.018961 0.0172,1.159785 0.10626,0.04253 0.14048,0.04368 0.32905,0.01153 0.57419,-0.09801 1.33632,-0.59124 2.32107,-1.502217 0.51156,-0.473221 0.99902,-1.16839 1.10353,-1.573757 0.0757,-0.293363 -0.0403,-0.531816 -0.30152,-0.620813 -0.15976,-0.05439 -0.29619,-0.04532 -0.54716,0.03645 z"
         style="display:inline;fill:#656565;stroke-width:0.0250698" />
      <path
         style="display:inline;fill:#656565;stroke-width:0.0299036"
         d="m 173.78098,25.740739 c -0.51762,-0.106694 -0.85832,-0.281598 -1.17087,-0.601056 -0.3933,-0.401998 -0.56605,-0.902272 -0.48995,-1.418836 0.048,-0.326321 0.13681,-0.601988 0.28838,-0.896137 0.58325,-1.131779 1.88363,-2.042867 3.31984,-2.32595 0.37973,-0.07489 1.04022,-0.06088 1.37817,0.02907 0.3141,0.08363 0.54594,0.187985 0.7739,0.348322 l 0.17363,0.122126 0.11649,-8.312638 0.1165,-8.31264 0.25449,0.00357 0.25448,0.00357 -0.13748,9.23174 -0.13747,9.231751 -0.072,0.234467 c -0.39633,1.291382 -1.72204,2.332173 -3.35706,2.635537 -0.3856,0.07156 -1.03128,0.08486 -1.31167,0.02711 z"
         id="path837-2-5"
         inkscape:connector-curvature="0" />
      <path
         style="display:inline;fill:#656565;fill-opacity:1;stroke:#656565;stroke-width:0.0478488px;stroke-linecap:butt;stroke-linejoin:miter;stroke-opacity:1"
         d="m 95.064767,32.684141 c 1.806539,2.143016 3.378149,3.236966 4.340369,3.812668 0.759884,0.454623 4.714914,2.290142 2.617534,7.822639 0.69957,-4.982079 -0.873,-7.295365 -5.112116,-7.669752 l 2.9356,9.124224 c 1.326216,3.720479 -2.257426,5.474207 -3.723315,4.494025 -1.712363,-1.140433 -1.096649,-4.629745 3.096076,-4.67217 z"
         id="path1107-3"
         inkscape:connector-curvature="0"
         sodipodi:nodetypes="cccccccc" />
      <path
         sodipodi:nodetypes="cccccccc"
         inkscape:connector-curvature="0"
         id="path1107-3-0"
         d="m 35.171263,50.248418 c 1.551987,1.844545 2.902757,2.786656 3.729853,3.282562 0.653173,0.391606 4.053196,1.973424 2.24489,6.729922 0.605687,-4.284241 -0.744932,-6.275037 -4.390468,-6.600445 l 2.517405,7.849599 c 1.137601,3.200846 -1.945923,4.70624 -3.205862,3.862056 -1.471791,-0.982202 -0.939445,-3.982666 2.666546,-4.015775 z"
         style="display:inline;fill:#656565;fill-opacity:1;stroke:#656565;stroke-width:0.0411521px;stroke-linecap:butt;stroke-linejoin:miter;stroke-opacity:1" />
      <path
         sodipodi:nodetypes="cccccccc"
         inkscape:connector-curvature="0"
         id="path1107-3-3"
         d="m 122.9358,19.929917 c 1.87494,2.480736 3.5515,3.7854 4.58353,4.479971 0.81502,0.548487 5.08828,2.815335 2.43826,8.820749 1.069,-5.478113 -0.53668,-8.133675 -5.21091,-8.798569 l 2.71384,10.281479 c 1.24972,4.199984 -2.82392,5.931395 -4.39007,4.759004 -1.82976,-1.364464 -0.94175,-5.193767 3.70569,-4.993373 z"
         style="display:inline;fill:#656565;fill-opacity:1;stroke:#656565;stroke-width:0.0530843px;stroke-linecap:butt;stroke-linejoin:miter;stroke-opacity:1" />
      <path
         inkscape:connector-curvature="0"
         id="path837-5-6"
         d="m 60.484515,54.18087 c -1.895668,0.172877 -2.455736,-2.133268 -0.955561,-3.934562 0.870981,-1.045796 1.690102,-1.413097 2.975468,-1.334206 0.03473,0.0022 -1.090097,-2.633251 -2.49977,-5.856393 l -2.563039,-5.860258 4.478319,-1.958635 4.478311,-1.958629 2.895932,6.671932 2.895932,6.671933 -0.03357,0.465068 c -0.200349,2.776051 -4.013355,4.613781 -4.840934,2.333156 -0.696284,-1.918831 1.570061,-4.592212 3.576341,-4.21863 l 0.245653,0.04574 -2.065542,-4.722742 -2.065539,-4.722741 -4.06372,1.777306 -4.063721,1.777307 2.390029,5.4647 2.390046,5.464692 -0.02617,0.511446 c -0.08098,1.5829 -1.627421,3.244785 -3.148458,3.383499 z"
         style="display:inline;fill:#656565;stroke-width:0.0751762" />
    </g>
  </g>
</svg>
