<?xml version="1.0" encoding="UTF-8" standalone="no"?>
<svg
   xmlns:osb="http://www.openswatchbook.org/uri/2009/osb"
   xmlns:dc="http://purl.org/dc/elements/1.1/"
   xmlns:cc="http://creativecommons.org/ns#"
   xmlns:rdf="http://www.w3.org/1999/02/22-rdf-syntax-ns#"
   xmlns:svg="http://www.w3.org/2000/svg"
   xmlns="http://www.w3.org/2000/svg"
   xmlns:xlink="http://www.w3.org/1999/xlink"
   xmlns:sodipodi="http://sodipodi.sourceforge.net/DTD/sodipodi-0.dtd"
   xmlns:inkscape="http://www.inkscape.org/namespaces/inkscape"
   inkscape:export-ydpi="104.7"
   inkscape:export-xdpi="104.7"
   inkscape:export-filename="/home/gabriel/Projects/interpretation-switcher/src/assets/icon.png"
   sodipodi:docname="icon.svg"
   inkscape:version="1.0beta1 (ebe9883479, 2019-09-21)"
   id="svg8"
   version="1.1"
   viewBox="0 0 256 256"
   height="256mm"
   width="256mm">
  <defs
     id="defs2">
    <linearGradient
       id="linearGradient883-3"
       inkscape:collect="always">
      <stop
         id="stop879"
         offset="0"
         style="stop-color:#00e5ff;stop-opacity:1;" />
      <stop
         style="stop-color:#00acc1;stop-opacity:1"
         offset="0.5"
         id="stop887" />
      <stop
         id="stop881"
         offset="1"
         style="stop-color:#18ffff;stop-opacity:1" />
    </linearGradient>
    <inkscape:path-effect
       effect="bspline"
       id="path-effect949"
       is_visible="true"
       weight="33.333333"
       steps="2"
       helper_size="0"
       apply_no_weight="true"
       apply_with_weight="true"
       only_selected="false" />
    <inkscape:path-effect
       only_selected="false"
       apply_with_weight="true"
       apply_no_weight="true"
       helper_size="0"
       steps="2"
       weight="33.333333"
       is_visible="true"
       id="path-effect930"
       effect="bspline" />
    <inkscape:path-effect
       only_selected="false"
       apply_with_weight="true"
       apply_no_weight="true"
       helper_size="0"
       steps="2"
       weight="33.333333"
       is_visible="true"
       id="path-effect857"
       effect="bspline" />
    <linearGradient
       id="linearGradient3277"
       inkscape:collect="always">
      <stop
         style="stop-color:#1a1a1a;stop-opacity:1"
         offset="0"
         id="stop3275" />
      <stop
         style="stop-color:#737373;stop-opacity:1"
         offset="1"
         id="stop3273" />
    </linearGradient>
    <linearGradient
       osb:paint="gradient"
       id="linearGradient1317">
      <stop
         style="stop-color:#2d2d2d;stop-opacity:0;"
         offset="0"
         id="stop1315" />
      <stop
         style="stop-color:#2d2d2d;stop-opacity:1;"
         offset="1"
         id="stop1313" />
    </linearGradient>
    <inkscape:path-effect
       only_selected="false"
       apply_with_weight="true"
       apply_no_weight="true"
       helper_size="0"
       steps="2"
       weight="33.333333"
       is_visible="true"
       id="path-effect1255"
       effect="bspline" />
    <clipPath
       clipPathUnits="userSpaceOnUse"
       id="clipPath876">
      <rect
         style="opacity:0.5848;fill:#656565;fill-rule:evenodd;stroke:#7700c3;stroke-width:0.00340697;stroke-linecap:square;stroke-linejoin:round;paint-order:markers stroke fill"
         id="rect878"
         width="96.90937"
         height="96.90937"
         x="0.30960014"
         y="35.371597" />
    </clipPath>
    <linearGradient
       gradientUnits="userSpaceOnUse"
       y2="15.255594"
       x2="130.5255"
       y1="225.60182"
       x1="130.5255"
       id="linearGradient3443"
       xlink:href="#linearGradient3277"
       inkscape:collect="always" />
    <inkscape:path-effect
       effect="bspline"
       id="path-effect857-3"
       is_visible="true"
       weight="33.333333"
       steps="2"
       helper_size="0"
       apply_no_weight="true"
       apply_with_weight="true"
       only_selected="false" />
    <inkscape:path-effect
       only_selected="false"
       apply_with_weight="true"
       apply_no_weight="true"
       helper_size="0"
       steps="2"
       weight="33.333333"
       is_visible="true"
       id="path-effect857-3-7"
       effect="bspline" />
    <inkscape:path-effect
       effect="bspline"
       id="path-effect857-3-7-3"
       is_visible="true"
       weight="33.333333"
       steps="2"
       helper_size="0"
       apply_no_weight="true"
       apply_with_weight="true"
       only_selected="false" />
    <inkscape:path-effect
       effect="bspline"
       id="path-effect857-3-7-6"
       is_visible="true"
       weight="33.333333"
       steps="2"
       helper_size="0"
       apply_no_weight="true"
       apply_with_weight="true"
       only_selected="false" />
    <inkscape:path-effect
       effect="bspline"
       id="path-effect930-9"
       is_visible="true"
       weight="33.333333"
       steps="2"
       helper_size="0"
       apply_no_weight="true"
       apply_with_weight="true"
       only_selected="false" />
    <inkscape:path-effect
       only_selected="false"
       apply_with_weight="true"
       apply_no_weight="true"
       helper_size="0"
       steps="2"
       weight="33.333333"
       is_visible="true"
       id="path-effect930-9-2"
       effect="bspline" />
    <inkscape:path-effect
       effect="bspline"
       id="path-effect930-0"
       is_visible="true"
       weight="33.333333"
       steps="2"
       helper_size="0"
       apply_no_weight="true"
       apply_with_weight="true"
       only_selected="false" />
    <inkscape:path-effect
       only_selected="false"
       apply_with_weight="true"
       apply_no_weight="true"
       helper_size="0"
       steps="2"
       weight="33.333333"
       is_visible="true"
       id="path-effect930-0-3"
       effect="bspline" />
    <inkscape:path-effect
       effect="bspline"
       id="path-effect1255-7"
       is_visible="true"
       weight="33.333333"
       steps="2"
       helper_size="0"
       apply_no_weight="true"
       apply_with_weight="true"
       only_selected="false" />
    <clipPath
       clipPathUnits="userSpaceOnUse"
       id="clipPath917">
      <g
         style="opacity:1"
         id="g921"
         transform="matrix(0.8476434,0,0,0.8476434,25.473002,14.66673)">
        <path
           d="m 67.6875,24.283203 -16.291016,0.191406 -16.355468,0.19336 -0.09766,11.279297 -0.09961,11.283203 14.396484,-0.210938 c 3.934799,-0.0576 7.50474,-0.09494 10.085938,-0.109375 1.290599,-0.0072 2.334621,-0.0088 3.052734,-0.0039 0.359057,0.0024 0.636403,0.0061 0.822266,0.01172 0.07889,0.0024 0.131668,0.005 0.175781,0.0078 -1.286292,2.605319 -1.294474,4.691707 0.03125,7.433594 1.162625,2.404482 3.061566,3.834731 4.861328,4.132813 1.799762,0.298081 3.501786,-0.55555 4.203125,-2.666016 l 0.05469,-0.164063 -0.03906,0.01367 C 72.993643,54.010982 72.790975,52.044 72.054689,50.27929 71.297537,48.464571 70.005269,46.870535 68.402345,46.070305 l -1.039063,-0.519531 -13.365234,0.195313 -13.255859,0.195312 0.08789,-10.072265 0.08984,-10.076172 11.447266,-0.167969 11.371093,-0.167969 -0.228515,0.34375 c -1.321803,1.986716 -1.117816,4.781992 -0.01758,7.109375 1.100237,2.327384 3.103236,4.201647 5.423828,4.320313 1.378544,0.07057 2.41285,-0.499305 3.078125,-1.433594 0.665275,-0.934289 0.969408,-2.225709 0.93164,-3.613281 -0.07554,-2.775144 -1.522474,-5.944425 -4.298828,-7.40625 z m -0.04102,0.169922 0.900391,0.474609 c 2.707963,1.425815 4.134966,4.540365 4.208984,7.259766 0.03701,1.359701 -0.263994,2.617987 -0.90039,3.511719 -0.636396,0.893732 -1.601609,1.429311 -2.929688,1.361328 -2.233919,-0.114234 -4.200096,-1.935642 -5.28125,-4.222656 -1.081154,-2.287015 -1.270501,-5.024946 0.0059,-6.94336 L 64.058594,25.283203 52.365234,25.455078 40.75,25.625 l -0.08984,10.242188 -0.08984,10.246093 13.431641,-0.195312 13.322266,-0.195313 1.001953,0.5 c 1.554632,0.776121 2.828037,2.339303 3.572266,4.123047 0.744228,1.783744 0.957677,3.783986 0.412109,5.425781 -0.679995,2.046235 -2.279586,2.839616 -4.011719,2.552735 -1.732133,-0.286881 -3.595816,-1.674322 -4.738281,-4.03711 -1.33109,-2.752983 -1.330827,-4.76404 -0.002,-7.392578 1.4e-4,-2.78e-4 0.0079,-0.05636 0.0078,-0.05664 -5.5e-5,-2.76e-4 -0.02123,-0.0427 -0.02148,-0.04297 -2.52e-4,-2.72e-4 -0.01908,-0.01536 -0.01953,-0.01563 -4.47e-4,-2.69e-4 -0.01011,-0.0044 -0.01367,-0.0059 -0.01424,-0.0059 -0.02077,-0.0063 -0.0293,-0.0078 -0.01705,-0.003 -0.03575,-0.0059 -0.06055,-0.0078 -0.0496,-0.0038 -0.120596,-0.0069 -0.214844,-0.0098 -0.188496,-0.0057 -0.4684,-0.0093 -0.828125,-0.01172 -0.719448,-0.0049 -1.763697,-0.0033 -3.054687,0.0039 -2.58198,0.01444 -6.150721,0.05177 -10.085938,0.109375 l -14.222656,0.208985 0.09766,-11.109375 0.09766,-11.113281 16.1875,-0.191407 z m 4.744902,31.345382 c -1.381334,4.1567 -6.601912,3.29206 -8.907002,-1.47521 -1.338273,-2.76784 -1.338789,-4.82369 -0.0019,-7.468081 0.03602,-0.0713 -6.373337,-0.0355 -14.243353,0.0797 l -14.309184,0.20973 0.0981,-11.19612 0.0981,-11.196121 16.27081,-0.19211 16.270833,-0.1921 0.918848,0.48361 c 5.484317,2.88764 5.747887,12.571461 0.334642,12.294361 -4.554511,-0.2329 -7.939121,-7.392681 -5.340958,-11.297811 l 0.318097,-0.47815 -11.531666,0.16909 -11.531648,0.16908 -0.08914,10.159651 -0.08914,10.1596 13.343305,-0.19554 13.343305,-0.19552 1.020246,0.50933 c 3.157556,1.57635 5.135687,6.317481 4.027387,9.652721 z m -42.07498,57.379223 c -0.911502,0.0398 -1.742442,0.18803 -2.49414,0.40625 -3.006794,0.87288 -4.757394,2.86685 -5.404297,3.47071 -1.653488,1.54335 -4.691406,3.96679 -10.136719,6.19726 l 0.01953,0.0996 30.074219,-0.0937 c -0.773599,4.15479 0.678949,7.10354 2.744141,8.67188 2.076326,1.57679 4.763362,1.76914 6.388671,0.41015 0.702321,-0.58476 1.071777,-1.54333 1.095704,-2.64257 0.02393,-1.09924 -0.297738,-2.34117 -0.978516,-3.50196 -1.361335,-2.32121 -4.168949,-4.31534 -8.550781,-4.17383 h -0.002 l -21.212891,0.0664 c 1.26653,-4.03503 3.309595,-6.45813 6.359375,-7.31836 3.068364,-0.86547 7.164768,-0.15163 12.507812,2.11328 l 0.04883,-0.0898 c -0.0027,-0.002 -0.0051,-0.002 -0.0078,-0.004 -2.96e-4,-2e-4 2.96e-4,-0.002 0,-0.002 -0.0022,-9.4e-4 -0.0036,-0.001 -0.0059,-0.002 -4.254561,-2.86775 -7.713937,-3.72657 -10.445313,-3.60743 z m 0.0039,0.10352 c 2.613716,-0.11476 5.931694,0.73034 9.972657,3.35742 -5.095942,-2.09427 -9.099316,-2.81557 -12.101563,-1.96875 -3.105562,0.87597 -5.186429,3.35653 -6.457031,7.45508 l -0.02148,0.0664 21.361328,-0.0664 h 0.002 c 4.350495,-0.14117 7.117579,1.83249 8.460937,4.12305 0.67168,1.14528 0.986346,2.36971 0.962891,3.44726 -0.02345,1.07756 -0.385239,2.00576 -1.058594,2.56641 -1.578662,1.31998 -4.214292,1.1393 -6.259765,-0.41406 -2.045473,-1.55337 -3.499158,-4.47403 -2.703125,-8.63282 l 0.01172,-0.0605 -29.976562,0.0937 c 5.305964,-2.20769 8.339078,-4.59255 9.974609,-6.11914 0.661517,-0.6175 2.386434,-2.58113 5.363281,-3.44532 0.744212,-0.21604 1.565328,-0.36267 2.46875,-0.40234 z m -18.019911,10.01838 c 5.451207,-2.23289 8.495901,-4.66172 10.152731,-6.20819 1.30842,-1.22136 6.94885,-7.91291 18.294132,-0.2567 -10.696331,-4.53416 -16.428372,-2.87322 -18.963662,5.3048 l 21.29063,-0.0664 c 8.733546,-0.2834 11.152276,7.93718 8.400926,10.22799 -3.203972,2.67896 -10.644635,-0.74629 -9.046536,-9.09539 z m 47.701552,77.75115 c -1.208114,-0.15353 -2.395641,-0.0922 -3.554687,0.13281 -1.161285,0.24103 -2.216309,0.65782 -3.164063,1.25 -0.963887,0.59038 -1.756114,1.36317 -2.392578,2.30274 -0.636677,0.93988 -1.029701,1.99362 -1.183594,3.20508 -0.035,0.27046 -0.03232,0.75387 -0.04102,1.45312 l -6.394532,0.49219 c -0.998979,-1.40281 -2.209446,-2.65578 -3.646484,-3.77539 -1.425532,-1.10349 -2.989359,-1.99788 -4.662109,-2.67969 -1.686543,-0.69971 -3.404241,-1.16058 -5.199219,-1.38867 -3.780254,-0.48039 -7.14223,0.063 -10.06836,1.61719 h -0.002 c -0.350088,0.2144 -0.614756,0.39097 -0.779297,0.5332 -0.165255,0.14284 -0.270058,0.31254 -0.296874,0.52344 -0.01785,0.14052 0.02641,0.34115 0.126953,0.60156 0.100545,0.26041 0.258042,0.58031 0.46875,0.95508 0.475834,0.8389 1.231829,1.63237 2.269531,2.36328 1.035651,0.74684 2.264028,1.37263 3.716797,1.88086 1.450708,0.52416 3.032927,0.90278 4.746093,1.13672 2.67466,0.25913 5.34359,0.19286 8.003907,-0.19532 1.425922,1.82705 2.608368,3.28627 3.529297,4.4043 0.940613,1.10634 2.012501,2.19683 3.199218,3.26953 1.187238,1.07321 2.492096,1.98321 3.896485,2.74414 1.38917,0.75931 2.909049,1.25967 4.521484,1.5293 v 0.002 c 1.749915,0.20625 3.476262,0.0855 5.162109,-0.34765 1.703687,-0.44707 3.249115,-1.1746 4.667969,-2.17578 1.421056,-1.0172 2.578802,-2.24494 3.490235,-3.69922 0.911627,-1.45457 1.470615,-3.05268 1.691406,-4.78907 0.131514,-1.03014 0.128839,-2.02853 0.01367,-3.00976 0.667284,-0.045 1.640641,-0.14476 2.894531,-0.29102 1.276278,-0.14488 2.304574,-0.24069 3.068359,-0.28906 0.779202,-0.0464 1.549775,-0.0284 2.310547,0.0684 1.125715,0.14307 2.011667,0.38486 2.625,0.73633 h 0.002 c 0.549695,0.21443 1.042496,0.63085 1.482422,1.21875 0.439941,0.58791 0.756828,1.25661 0.962891,2.04101 0.192329,0.76665 0.258571,1.51682 0.167969,2.23047 -0.177363,1.39569 -0.790306,2.33219 -1.794922,2.83399 l 0.04102,-0.32422 c 0.123792,-0.97421 -0.107311,-1.83237 -0.679687,-2.55469 -0.572292,-0.72215 -1.331417,-1.14428 -2.271484,-1.26367 -0.701033,-0.089 -1.375787,0.004 -2.00586,0.24805 -0.63204,0.26045 -1.152768,0.64999 -1.572266,1.14843 -0.405648,0.51648 -0.655196,1.08549 -0.734374,1.70899 v 0.002 c -0.04756,0.75641 0.09147,1.44056 0.453124,2.03906 0.343212,0.61113 0.83133,1.11176 1.458985,1.51563 0.627925,0.40405 1.305161,0.66772 2.046875,0.81054 h 0.002 c 1.69468,0.15053 3.107024,-0.38382 4.259766,-1.5664 1.136331,-1.18408 1.824157,-2.65308 2.046875,-4.40625 0.157982,-1.24333 0.03414,-2.42596 -0.375,-3.53125 -0.407124,-1.12121 -1.067313,-2.04761 -1.97461,-2.79492 -0.909562,-0.73154 -1.983763,-1.17626 -3.240234,-1.33594 -0.810334,-0.10311 -1.645022,-0.14401 -2.523438,-0.0937 -0.877573,0.0502 -2.067593,0.14084 -3.568359,0.27344 -1.480703,0.14993 -2.628716,0.23099 -3.421875,0.25976 -0.478889,-2.07813 -1.417868,-3.7027 -2.832031,-4.88476 -1.416501,-1.18403 -3.07156,-1.89636 -4.947266,-2.13477 z m -0.0039,0.0332 c 1.870134,0.2377 3.517748,0.94674 4.929687,2.12696 1.411385,1.17974 2.349439,2.79994 2.826172,4.8789 l 0.002,0.0117 h 0.01367 c 0.79447,-0.0285 1.950386,-0.10722 3.4375,-0.25781 1.500575,-0.13258 2.6894,-0.22522 3.566407,-0.27539 0.876264,-0.0501 1.708912,-0.009 2.517578,0.0937 1.251369,0.15904 2.319711,0.60229 3.224609,1.33008 0.903143,0.74389 1.557614,1.66512 1.962891,2.78125 0.407297,1.1003 0.532397,2.27689 0.375,3.51562 -0.221962,1.74723 -0.907414,3.20947 -2.039063,4.38867 -1.146523,1.17621 -2.546879,1.70581 -4.232422,1.55665 -0.738065,-0.14212 -1.412654,-0.40482 -2.037109,-0.80665 -0.624305,-0.40171 -1.106695,-0.89894 -1.447266,-1.50585 -0.357964,-0.5924 -0.496457,-1.26825 -0.449218,-2.01954 0.07842,-0.61754 0.325963,-1.18082 0.728515,-1.69336 0.416402,-0.49476 0.931214,-0.88014 1.558594,-1.13867 0.625427,-0.24264 1.294506,-0.33446 1.990234,-0.24609 0.932873,0.11847 1.682472,0.53582 2.25,1.25195 0.567324,0.71594 0.794743,1.56432 0.671875,2.53125 l -0.04883,0.39453 0.02539,-0.0117 c 1.036147,-0.50189 1.661379,-1.46503 1.841797,-2.88476 0.0912,-0.71834 0.02514,-1.47242 -0.167969,-2.24219 -0.206977,-0.78788 -0.524298,-1.45945 -0.966797,-2.05078 -0.441827,-0.59044 -0.940326,-1.01108 -1.496094,-1.22852 -0.619367,-0.35492 -1.508613,-0.59881 -2.636718,-0.74218 -0.762988,-0.097 -1.535488,-0.11292 -2.316407,-0.0664 -0.764635,0.0484 -1.79369,0.14414 -3.070312,0.28906 -1.260465,0.14703 -2.241828,0.24845 -2.908203,0.29297 h -0.01563 l 0.002,0.0176 c 0.116662,0.98365 0.118191,1.98469 -0.01367,3.01758 -0.220249,1.73213 -0.778348,3.32477 -1.6875,4.77539 -0.909267,1.45083 -2.062645,2.67652 -3.480469,3.69141 -1.415866,0.99907 -2.95815,1.7238 -4.658203,2.16992 -1.682133,0.43216 -3.404346,0.55149 -5.150391,0.3457 -1.609305,-0.26911 -3.124015,-0.76796 -4.509765,-1.52539 -1.402291,-0.75979 -2.705363,-1.66882 -3.890625,-2.74023 -1.185823,-1.0719 -2.255746,-2.16053 -3.195313,-3.26563 -0.922147,-1.11951 -2.106648,-2.57963 -3.535156,-4.41016 l -0.0098,0.0215 -0.0039,-0.0274 h -0.002 c -2.661017,0.38907 -5.328528,0.45257 -8.003906,0.19336 -1.711194,-0.23366 -3.28993,-0.61145 -4.738281,-1.13476 -1.450352,-0.50739 -2.676196,-1.13218 -3.708985,-1.87695 -1.034778,-0.72886 -1.78684,-1.51779 -2.259765,-2.35157 -0.210233,-0.37393 -0.367124,-0.69302 -0.466797,-0.95117 -0.09967,-0.25815 -0.141505,-0.45597 -0.125,-0.58594 0.02578,-0.20278 0.124268,-0.36289 0.285156,-0.50195 0.161132,-0.13929 0.425408,-0.31607 0.773437,-0.5293 l 0.002,-0.002 c 2.91938,-1.54994 6.274862,-2.09287 10.048828,-1.61328 1.792161,0.22773 3.505416,0.68805 5.189453,1.38672 1.67015,0.68075 3.233062,1.57411 4.65625,2.67578 1.437053,1.11962 2.64847,2.37252 3.646484,3.77539 l 0.0039,0.008 6.441407,-0.49609 v -0.0156 c 0.009,-0.71029 0.0063,-1.19495 0.04102,-1.46289 0.153328,-1.207 0.543852,-2.25565 1.177735,-3.1914 0.634116,-0.93611 1.424832,-1.70501 2.384765,-2.29297 v -0.002 c 0.944427,-0.5901 1.994468,-1.00382 3.152344,-1.24414 1.156074,-0.22447 2.340436,-0.28393 3.544922,-0.13086 z M 26.285156,203.25 c -0.581813,-0.009 -1.050741,0.10996 -1.394531,0.37695 h -0.002 c -0.327023,0.26837 -0.536529,0.63439 -0.597656,1.11524 -0.122198,0.96115 0.361602,1.90146 1.441406,2.8164 0.942296,0.71878 2.086409,1.36663 3.408203,1.89063 1.335406,0.54189 2.676498,0.92338 4.054687,1.13086 1.582732,0.12041 2.902147,0.029 3.970704,-0.24024 l 0.0078,-0.002 0.0059,-0.0137 -0.002,-0.008 c -0.251935,-0.56796 -0.732146,-1.24408 -1.427734,-1.9961 -0.67971,-0.74997 -1.503791,-1.50215 -2.443359,-2.23633 -0.953656,-0.75226 -1.939014,-1.37924 -2.957032,-1.88086 v 0.002 c -1.002455,-0.49978 -1.981675,-0.80266 -2.904297,-0.91992 -0.397652,-0.0504 -0.799159,-0.0705 -1.160156,-0.0352 z m 0,0.0332 h 0.002 c 0.357604,-0.035 0.75833,-0.017 1.154297,0.0332 0.918599,0.11675 1.894907,0.41765 2.894532,0.91601 1.015881,0.50057 1.999147,1.12598 2.951171,1.87696 0.938372,0.73324 1.761243,1.48409 2.439453,2.23242 0.687303,0.74306 1.15659,1.4093 1.408204,1.96875 -1.060306,0.26435 -2.365775,0.35556 -3.935547,0.23633 -1.375511,-0.20708 -2.713542,-0.58591 -4.046875,-1.12696 -1.319287,-0.523 -2.460667,-1.16991 -3.400391,-1.88672 -1.074213,-0.91063 -1.548227,-1.83937 -1.427734,-2.78711 0.06023,-0.47381 0.26474,-0.83016 0.585937,-1.09375 0.33625,-0.26114 0.797813,-0.3781 1.375,-0.36914 z m 34.390625,0.44141 c -1.115205,0.004 -2.141876,0.19781 -3.085937,0.62891 -0.957929,0.41311 -1.746386,1.02488 -2.369141,1.85351 -0.622863,0.82877 -1.006476,1.80326 -1.152344,2.95117 v 0.0195 l 0.01758,-0.002 12.541015,-0.93164 -0.0059,-0.0195 c -0.674254,-2.5813 -2.669725,-4.08397 -5.94336,-4.5 z m -0.002,0.0312 c 3.257351,0.41396 5.232119,1.90173 5.908203,4.45898 l -12.474609,0.92774 c 0.147419,-1.13326 0.523389,-2.09733 1.138672,-2.91602 0.619505,-0.82431 1.40419,-1.43266 2.357422,-1.84375 0.938805,-0.4287 1.959525,-0.62273 3.070312,-0.62695 z m 6.179688,5.66602 -12.773438,0.88867 0.002,0.0176 c 0.14695,1.0085 0.641988,1.96243 1.460938,2.89258 0.835503,0.93286 1.820689,1.46378 2.935547,1.60547 0.70199,0.0891 1.528022,-0.0491 2.429687,-0.40429 0.919043,-0.35377 1.628934,-0.97678 2.142578,-1.83594 l 0.002,-0.002 v -0.002 c 0.05025,-0.14505 0.117782,-0.24708 0.199219,-0.30859 0.08144,-0.0615 0.177477,-0.084 0.285156,-0.0703 0.03236,0.004 0.06312,0.0319 0.0918,0.0957 0.02811,0.0625 0.05189,0.16094 0.06641,0.29492 -0.547974,1.39719 -1.473721,2.4883 -2.746093,3.26172 -1.289093,0.77192 -2.678463,1.07946 -4.203125,0.91797 -1.62586,-0.25506 -3.084028,-0.94028 -4.359375,-2.05469 -1.289171,-1.13229 -2.13091,-2.48171 -2.527344,-4.04883 l -0.002,-0.0117 -5.814453,0.38282 0.01367,0.0234 c 1.720889,2.70946 3.580154,4.96803 5.607421,6.79493 2.012209,1.82565 4.310498,2.92743 6.892579,3.32031 h 0.002 c 1.164631,0.11563 2.323181,0.0198 3.460937,-0.28907 1.153975,-0.30686 2.224779,-0.85179 3.244141,-1.6289 2.025341,-1.57254 3.261079,-3.79569 3.71875,-6.63477 v -0.002 c 0.06097,-0.97977 0.01709,-2.03663 -0.126953,-3.1875 z m -0.0293,0.0352 c 0.142164,1.14273 0.18748,2.19342 0.126953,3.16602 -0.456903,2.83179 -1.688721,5.0462 -3.707031,6.61328 -1.016498,0.77493 -2.082777,1.31733 -3.232422,1.62305 -1.133427,0.30766 -2.289049,0.40401 -3.449219,0.28906 -2.57608,-0.39197 -4.868981,-1.49069 -6.876953,-3.3125 -2.018295,-1.81881 -3.868982,-4.06969 -5.583985,-6.76563 l 5.732422,-0.38086 c 0.399365,1.56784 1.243296,2.9198 2.533204,4.05274 1.279552,1.11809 2.74336,1.80653 4.375,2.0625 1.530917,0.16215 2.930022,-0.14666 4.224609,-0.92188 1.278682,-0.77726 2.209511,-1.87471 2.759765,-3.27929 l 0.002,-0.004 v -0.004 c -0.01466,-0.14025 -0.03929,-0.24151 -0.07031,-0.31054 -0.03102,-0.069 -0.07004,-0.10724 -0.117187,-0.11328 -0.114501,-0.0146 -0.220549,0.01 -0.308594,0.0762 -0.08805,0.0665 -0.157308,0.17506 -0.208984,0.32422 v -0.004 c -0.510476,0.85386 -1.214517,1.473 -2.126954,1.82422 -0.898095,0.3538 -1.719293,0.49048 -2.414062,0.40234 -1.107282,-0.14073 -2.084819,-0.66766 -2.916016,-1.5957 -0.810903,-0.92101 -1.294113,-1.86504 -1.443359,-2.85938 z m -12.726045,0.86836 c 0.14642,1.00486 0.63841,1.95657 1.45588,2.88504 0.83335,0.93045 1.81449,1.45932 2.92556,1.60053 0.69838,0.0886 1.5223,-0.049 2.42218,-0.40351 0.91574,-0.35249 1.62373,-0.97391 2.13579,-1.83042 0.10193,-0.29421 0.27884,-0.41726 0.50102,-0.389 0.0795,0.0102 0.1446,0.13153 0.17371,0.41007 -0.54905,1.40151 -1.47845,2.49597 -2.75437,3.27155 -1.29184,0.77357 -2.68576,1.08147 -4.21355,0.91965 -1.62875,-0.25551 -3.08982,-0.94237 -4.36727,-2.05862 -1.29131,-1.13417 -2.13556,-2.48637 -2.53278,-4.0566 l -5.77415,0.38177 c 1.72025,2.70845 3.5785,4.96555 5.60451,6.79131 2.01009,1.82373 4.30571,2.92383 6.88479,3.31625 1.16273,0.11544 2.31998,0.02 3.45589,-0.28834 1.15181,-0.30629 2.22081,-0.84954 3.23874,-1.62556 2.02206,-1.56999 3.25577,-3.78989 3.71293,-6.6258 0.0609,-0.97858 0.0165,-2.03502 -0.12744,-3.18509 z m -0.0137,-1.16576 12.52117,-0.93096 c -0.67269,-2.57531 -2.65974,-4.07276 -5.92941,-4.48829 -1.11339,0.004 -2.13792,0.19718 -3.07964,0.62721 -0.95558,0.4121 -1.74293,1.02341 -2.36406,1.84988 -0.62114,0.82648 -1.00249,1.79658 -1.14806,2.94215 z m -16.92162,1.16394 c -0.25079,-0.56537 -0.72943,-1.24058 -1.42426,-1.99178 -0.67896,-0.74915 -1.50281,-1.50057 -2.44178,-2.23428 -0.95284,-0.75162 -1.93773,-1.37799 -2.95468,-1.87908 -1.00104,-0.49907 -1.97874,-0.80116 -2.89935,-0.91817 -0.39681,-0.0503 -0.79765,-0.069 -1.15695,-0.0338 -0.5795,-0.009 -1.04613,0.10947 -1.38615,0.37354 -0.32411,0.26598 -0.53135,0.62767 -0.59203,1.105 -0.12137,0.95464 0.35679,1.88847 1.43427,2.80144 0.94101,0.71779 2.0846,1.36432 3.40514,1.88782 1.33437,0.54147 2.67309,0.92176 4.04994,1.12904 1.58145,0.12031 2.89948,0.029 3.96584,-0.23971 z m 0.79319,1.11939 c -2.66228,0.38925 -5.33175,0.45416 -8.0084,0.19483 -1.71218,-0.2338 -3.29303,-0.61248 -4.74256,-1.13622 -1.45156,-0.50781 -2.67856,-1.13261 -3.71278,-1.87842 -1.03624,-0.72988 -1.79051,-1.52096 -2.26489,-2.3573 -0.42094,-0.7487 -0.628082,-1.27623 -0.593732,-1.54672 0.0263,-0.20684 0.1279,-0.37176 0.290972,-0.51271 0.16307,-0.14096 0.42744,-0.31756 0.77725,-0.53179 2.92301,-1.55249 6.28227,-2.09566 10.05985,-1.61561 1.79357,0.22791 3.50918,0.6885 5.19447,1.38769 1.67145,0.68128 3.2352,1.57521 4.65956,2.67779 1.43818,1.1205 2.64983,2.37389 3.64878,3.77807 l 6.41743,-0.49405 c 0.009,-0.71016 0.006,-1.19555 0.041,-1.46602 0.15361,-1.20923 0.54515,-2.25889 1.18043,-3.19671 0.63529,-0.93784 1.42701,-1.71028 2.38892,-2.29945 0.94609,-0.59114 1.99891,-1.00705 3.15849,-1.24772 1.15756,-0.22476 2.3425,-0.28438 3.5488,-0.13108 1.87292,0.23805 3.52447,0.9491 4.93869,2.13122 1.41424,1.18213 2.35314,2.80503 2.83049,4.88668 0.79396,-0.0285 1.94917,-0.10801 3.43602,-0.25857 1.50067,-0.13259 2.68969,-0.22405 3.56698,-0.27424 0.87734,-0.0502 1.71076,-0.009 2.52026,0.094 1.25392,0.15936 2.32655,0.60286 3.23378,1.33252 0.90522,0.7456 1.56194,1.66978 1.96814,2.78845 0.40822,1.1028 0.53247,2.28268 0.37478,3.52371 -0.22234,1.7502 -0.90859,3.2151 -2.04258,4.39674 -1.14987,1.17964 -2.55624,1.71229 -4.24682,1.56213 -0.73989,-0.14247 -1.41604,-0.40631 -2.04223,-0.80925 -0.62619,-0.40293 -1.11125,-0.90111 -1.45316,-1.51041 -0.35981,-0.59545 -0.49915,-1.27603 -0.45175,-2.02988 0.0788,-0.62052 0.32824,-1.18703 0.73234,-1.70154 0.41795,-0.4966 0.93485,-0.88362 1.56456,-1.14311 0.62775,-0.24354 1.30072,-0.33592 1.9991,-0.24721 0.93647,0.11893 1.68962,0.53807 2.25953,1.25721 0.56985,0.71913 0.80005,1.57294 0.67672,2.54351 l -0.0465,0.36594 c 1.03121,-0.4995 1.65266,-1.45527 1.83261,-2.87132 0.0909,-0.716 0.0253,-1.46805 -0.16742,-2.23626 -0.20652,-0.78614 -0.52447,-1.45708 -0.96569,-2.0467 -0.44119,-0.58959 -0.93635,-1.00821 -1.48956,-1.22401 -0.61635,-0.3532 -1.5049,-0.59547 -2.63181,-0.73869 -0.76188,-0.0969 -1.53387,-0.11406 -2.31393,-0.0676 -0.76421,0.0484 -1.79247,0.14415 -3.06892,0.28905 -1.26057,0.14704 -2.2412,0.24875 -2.90815,0.29331 0.11681,0.9849 0.11833,1.98754 -0.0137,3.02173 -0.22052,1.73426 -0.77787,3.32871 -1.68826,4.7813 -0.91035,1.45256 -2.0663,2.67992 -3.48574,3.69596 -1.41736,1.00013 -2.96112,1.72552 -4.66299,2.17211 -1.68399,0.43264 -3.40889,0.55307 -5.15687,0.34705 -1.61087,-0.26937 -3.12792,-0.76935 -4.51538,-1.52772 -1.40334,-0.76036 -2.70709,-1.66978 -3.89334,-2.74209 -1.18627,-1.0723 -2.25739,-2.16233 -3.19748,-3.26805 -0.92221,-1.11959 -2.10757,-2.57981 -3.53618,-4.41047 z M 68.463087,0 c 2.65e-4,85.333596 2.65e-4,170.66693 0,256 h 0.794792 c 2.65e-4,-85.33307 2.65e-4,-170.666404 0,-256 z m -9.999999,0 c 2.65e-4,85.333596 2.65e-4,170.66693 0,256 h 0.794792 c 2.65e-4,-85.33307 2.65e-4,-170.666404 0,-256 z M 48.46309,0 c 2.65e-4,85.333596 2.65e-4,170.66693 0,256 h 0.794792 c 2.65e-4,-85.33307 2.65e-4,-170.666404 0,-256 z m -9.999992,0 c 2.65e-4,85.333596 2.65e-4,170.66693 0,256 h 0.794792 c 2.65e-4,-85.33307 2.65e-4,-170.666404 0,-256 z m -9.205372,0 c -2.65e-4,85.333596 -2.65e-4,170.66693 0,256 h -0.794792 c -2.65e-4,-85.33307 -2.65e-4,-170.666404 0,-256 z"
           style="color:#000000;font-style:normal;font-variant:normal;font-weight:normal;font-stretch:normal;font-size:medium;line-height:normal;font-family:sans-serif;font-variant-ligatures:normal;font-variant-position:normal;font-variant-caps:normal;font-variant-numeric:normal;font-variant-alternates:normal;font-variant-east-asian:normal;font-feature-settings:normal;font-variation-settings:normal;text-indent:0;text-align:start;text-decoration:none;text-decoration-line:none;text-decoration-style:solid;text-decoration-color:#000000;letter-spacing:normal;word-spacing:normal;text-transform:none;writing-mode:lr-tb;direction:ltr;text-orientation:mixed;dominant-baseline:auto;baseline-shift:baseline;text-anchor:start;white-space:normal;shape-padding:0;shape-margin:0;inline-size:0;clip-rule:nonzero;display:inline;overflow:visible;visibility:visible;isolation:auto;mix-blend-mode:normal;color-interpolation:sRGB;color-interpolation-filters:linearRGB;solid-color:#000000;solid-opacity:1;vector-effect:none;fill-opacity:1;fill-rule:nonzero;stroke:none;stroke-width:0.170165;stroke-linecap:butt;stroke-linejoin:miter;stroke-miterlimit:4;stroke-dasharray:none;stroke-dashoffset:0;stroke-opacity:1;color-rendering:auto;image-rendering:auto;shape-rendering:auto;text-rendering:auto;enable-background:accumulate;stop-color:#000000;stop-opacity:1"
           id="path919"
           inkscape:connector-curvature="0"
           sodipodi:nodetypes="cccccccccccscccscccccccccscscccccsscscccccccccscscccccccsccccccccccccccccccccccccccccccccscccccccccccsccccccccccccccsccccccccccccccccccccccccccccccccccccccccccccccccccccccccccccccccccccccccccccccccccccccccccccccccccccccccccccccccccccccccccccccccccccccccccccccccccccccccccccccccccccccccccccccccccccccccccccccccccccccccccccccccccccccccccccccccccccccccccccccccccccccccccccccccccccccccccccccccccccccccccccccccccccccccccccccccccccccccccccccccccscccccccccccccccccccccccccccccccccccccccccccc" />
      </g>
    </clipPath>
    <inkscape:path-effect
       effect="bspline"
       id="path-effect1255-6"
       is_visible="true"
       weight="33.333333"
       steps="2"
       helper_size="0"
       apply_no_weight="true"
       apply_with_weight="true"
       only_selected="false" />
    <clipPath
       clipPathUnits="userSpaceOnUse"
       id="clipPath937">
      <g
         style="opacity:1"
         id="g941"
         transform="matrix(0.8476434,0,0,0.8476434,25.473002,14.66673)">
        <path
           d="m 214.38281,33.21875 0.21094,14.396484 c 0.0576,3.934799 0.0949,7.50474 0.10937,10.085938 0.007,1.290599 0.009,2.334621 0.004,3.052734 -0.002,0.359057 -0.006,0.636403 -0.0117,0.822266 -0.002,0.07889 -0.005,0.131668 -0.008,0.175781 -2.60532,-1.286291 -4.69366,-1.294474 -7.43555,0.03125 -2.40448,1.162626 -3.83277,3.061566 -4.13086,4.861328 -0.29808,1.799762 0.55555,3.501786 2.66602,4.203125 l 0.1875,0.06055 -0.0195,-0.04297 c 1.66132,0.498829 3.61809,0.2983 5.37695,-0.435546 1.81472,-0.757152 3.41071,-2.04942 4.21094,-3.652344 l 0.51953,-1.039063 -0.19727,-13.365234 -0.19335,-13.255859 10.07226,0.08984 10.07617,0.08789 0.16797,11.447266 0.16797,11.371093 -0.34375,-0.228515 c -1.98672,-1.321802 -4.78394,-1.117817 -7.11133,-0.01758 -2.32738,1.100238 -4.20164,3.103235 -4.32031,5.423828 -0.0706,1.378544 0.4993,2.41285 1.43359,3.078125 0.93429,0.665274 2.22767,0.969408 3.61524,0.93164 2.77514,-0.07554 5.94442,-1.522474 7.40625,-4.298828 l 0.49414,-0.939453 -0.19336,-16.291016 -0.19141,-16.355468 -11.27929,-0.09766 z m 0.17188,0.171875 11.10937,0.09766 11.11133,0.09766 0.19141,16.1875 0.19336,16.248046 -0.47461,0.900391 c -1.42582,2.707962 -4.54232,4.134966 -7.26172,4.208984 -1.3597,0.03701 -2.61604,-0.263995 -3.50977,-0.90039 -0.89373,-0.636396 -1.43126,-1.60161 -1.36328,-2.929688 0.11424,-2.23392 1.9376,-4.198142 4.22461,-5.279297 2.28701,-1.081154 5.02299,-1.272453 6.94141,0.0039 l 0.61328,0.408203 -0.17188,-11.69336 -0.16992,-11.615234 -10.24219,-0.08984 -10.24804,-0.08984 0.19726,13.431641 0.19531,13.322266 -0.5,1.001953 c -0.77612,1.554632 -2.3393,2.828037 -4.12304,3.572266 -1.78375,0.744228 -3.78399,0.957677 -5.42578,0.412109 -2.04624,-0.679995 -2.83962,-2.279585 -2.55274,-4.011719 0.28688,-1.732133 1.67432,-3.595816 4.03711,-4.738281 2.75299,-1.33109 4.76404,-1.330826 7.39258,-0.002 2.8e-4,1.4e-4 0.0564,0.0079 0.0566,0.0078 2.8e-4,-5.5e-5 0.0407,-0.02123 0.041,-0.02148 2.7e-4,-2.52e-4 0.0154,-0.01908 0.0156,-0.01953 2.7e-4,-4.47e-4 0.006,-0.01011 0.008,-0.01367 0.006,-0.01424 0.006,-0.02077 0.008,-0.0293 0.003,-0.01705 0.006,-0.03575 0.008,-0.06055 0.004,-0.0496 0.007,-0.120596 0.01,-0.214844 0.006,-0.188496 0.009,-0.4684 0.0117,-0.828125 0.005,-0.719448 0.003,-1.763698 -0.004,-3.054687 -0.0144,-2.58198 -0.0518,-6.150721 -0.10938,-10.085938 z m -8.74036,37.375729 c -4.1567,-1.381334 -3.29206,-6.601913 1.47521,-8.907004 2.76784,-1.338273 4.82369,-1.338788 7.46808,-0.0019 0.0713,0.03602 0.0355,-6.373336 -0.0797,-14.243352 l -0.20973,-14.309186 11.19612,0.09814 11.19612,0.09814 0.19211,16.270812 0.1921,16.270832 -0.48361,0.918849 c -2.88764,5.484316 -12.57146,5.747887 -12.29436,0.334643 0.2329,-4.554513 7.39268,-7.939122 11.29781,-5.340961 l 0.47815,0.3181 -0.16909,-11.531667 -0.16908,-11.531648 -10.15965,-0.08914 -10.1596,-0.08914 0.19554,13.343305 0.19552,13.343304 -0.50933,1.020246 c -1.57635,3.157556 -6.31748,5.135688 -9.65272,4.027389 z m -29.87488,22.841068 -0.0976,0.01953 0.0937,30.072268 c -4.15587,-0.77446 -7.10523,0.68056 -8.67383,2.74609 -1.5768,2.07633 -1.76914,4.76337 -0.41016,6.38867 0.58476,0.70232 1.54334,1.06983 2.64258,1.09375 1.09924,0.0239 2.34116,-0.29578 3.50195,-0.97656 2.32159,-1.36155 4.31606,-4.16968 4.17383,-8.55273 l -0.0664,-21.21289 c 4.03504,1.26653 6.45812,3.30958 7.31836,6.35937 0.86547,3.06837 0.15358,7.16477 -2.11133,12.50781 l 0.0898,0.0488 c 0.002,-0.003 0.002,-0.005 0.004,-0.008 3.82897,-5.67763 4.07558,-9.93995 3.20312,-12.94531 -0.87288,-3.0068 -2.86489,-4.7574 -3.46875,-5.4043 -1.54335,-1.65349 -3.96874,-4.691407 -6.19922,-10.136719 z m 0.004,0.226562 c 2.20825,5.30899 4.59209,8.344436 6.11914,9.980466 0.6175,0.66152 2.58308,2.38448 3.44727,5.36133 0.8411,2.89733 0.57814,7.00561 -2.95704,12.44336 2.09432,-5.096 2.81558,-9.09929 1.96875,-12.10156 -0.87596,-3.10556 -3.35457,-5.18643 -7.45312,-6.45703 l -0.0664,-0.0215 0.0664,21.36133 v 0.002 c 0.14117,4.3505 -1.83249,7.11758 -4.12305,8.46094 -1.14528,0.67168 -2.37166,0.98635 -3.44922,0.96289 -1.07755,-0.0234 -2.00381,-0.38524 -2.56445,-1.05859 -1.31998,-1.57866 -1.14125,-4.2143 0.41211,-6.25977 1.55336,-2.04547 4.47403,-3.49916 8.63281,-2.70312 l 0.0625,0.0117 z m -0.0507,-0.207995 c 2.23289,5.451207 4.66172,8.495901 6.20819,10.152731 1.22136,1.30842 7.91291,6.94885 0.2567,18.29413 4.53416,-10.69633 2.87322,-16.42837 -5.3048,-18.96366 l 0.0664,21.29063 c 0.2834,8.73354 -7.93718,11.15227 -10.22799,8.40092 -2.67896,-3.20397 0.74629,-10.64463 9.09539,-9.04653 z m -50.28724,86.608391 c -0.14052,-0.0178 -0.34115,0.0264 -0.60156,0.12695 -0.26041,0.10054 -0.58031,0.25804 -0.95508,0.46875 -0.83891,0.47583 -1.63042,1.23183 -2.36133,2.26953 -0.74684,1.03565 -1.37263,2.26403 -1.88086,3.7168 -0.52417,1.4507 -0.90278,3.03292 -1.13672,4.74609 -0.25914,2.67466 -0.19286,5.34164 0.19531,8.00195 -1.82704,1.42593 -3.28821,2.61032 -4.40625,3.53125 -1.10633,0.94062 -2.19682,2.0125 -3.26953,3.19922 -1.0732,1.18724 -1.98321,2.4921 -2.74414,3.89649 -0.7593,1.38917 -1.25966,2.90709 -1.52929,4.51953 v 0.002 c -0.20625,1.74992 -0.0855,3.47626 0.34765,5.16211 0.44707,1.70369 1.17265,3.24911 2.17383,4.66797 1.0172,1.42105 2.24688,2.57879 3.70117,3.49023 1.45457,0.91163 3.05072,1.47062 4.78711,1.69141 1.03015,0.13151 2.02853,0.12884 3.00977,0.0137 0.045,0.66729 0.14475,1.63869 0.29101,2.89258 0.14488,1.27628 0.24069,2.30457 0.28906,3.06836 0.0464,0.7792 0.0304,1.54977 -0.0664,2.31055 -0.14307,1.12571 -0.38486,2.01362 -0.73633,2.62695 h -0.002 v 0.002 c -0.21443,0.5497 -0.63085,1.0425 -1.21875,1.48242 -0.58791,0.43994 -1.25662,0.75683 -2.04102,0.96289 -0.76665,0.19233 -1.51681,0.25858 -2.23047,0.16797 -1.39569,-0.17736 -2.33218,-0.7903 -2.83398,-1.79492 l 0.32422,0.0391 c 0.9742,0.1238 1.83432,-0.10731 2.55664,-0.67968 0.72214,-0.5723 1.14233,-1.32947 1.26172,-2.26953 0.089,-0.70104 -0.004,-1.37774 -0.24805,-2.00782 -0.26045,-0.63204 -0.64805,-1.15081 -1.14648,-1.57031 -0.51649,-0.40565 -1.08744,-0.65715 -1.71094,-0.73633 -0.75641,-0.0476 -1.44056,0.0934 -2.03906,0.45508 v -0.002 c -0.61169,0.34325 -1.11149,0.83091 -1.51563,1.45898 -0.40406,0.62793 -0.66968,1.30712 -0.8125,2.04883 v 0.002 c -0.15052,1.69468 0.38382,3.10507 1.56641,4.25781 v 0.002 c 1.18408,1.13633 2.65307,1.82416 4.40625,2.04687 1.24333,0.15799 2.42595,0.0322 3.53125,-0.37695 1.12121,-0.40712 2.04761,-1.06536 2.79492,-1.97266 0.73153,-0.90956 1.17625,-1.98571 1.33594,-3.24218 0.1031,-0.81034 0.14596,-1.64503 0.0957,-2.52344 -0.0502,-0.87757 -0.14279,-2.06564 -0.27539,-3.56641 -0.15002,-1.48154 -0.22908,-2.63062 -0.25781,-3.42383 2.07813,-0.47889 3.70075,-1.41787 4.88281,-2.83203 1.18403,-1.4165 1.89636,-3.07156 2.13476,-4.94726 0.15353,-1.20812 0.0942,-2.39369 -0.13086,-3.55274 -0.24102,-1.16128 -0.65782,-2.21631 -1.25,-3.16406 -0.59038,-0.96389 -1.36511,-1.75807 -2.30468,-2.39453 -0.93988,-0.63668 -1.99167,-1.02775 -3.20313,-1.18164 -0.27046,-0.035 -0.75581,-0.0323 -1.45508,-0.041 l -0.49218,-6.39453 c 1.4028,-0.99898 2.65578,-2.20944 3.77539,-3.64648 1.10348,-1.42553 1.99788,-2.99131 2.67968,-4.66407 0.69971,-1.68654 1.16059,-3.40228 1.38868,-5.19726 0.48039,-3.78025 -0.063,-7.14418 -1.61719,-10.07031 -0.2144,-0.35009 -0.39097,-0.61476 -0.5332,-0.7793 -0.14284,-0.16525 -0.31254,-0.27006 -0.52344,-0.29687 z m -0.004,0.0312 c 0.20278,0.0258 0.36485,0.12428 0.50391,0.28516 0.13969,0.1616 0.31524,0.42586 0.5293,0.77539 1.55083,2.91989 2.09299,6.27588 1.61328,10.05078 -0.22773,1.79216 -0.68805,3.50542 -1.38672,5.18946 -0.68075,1.67015 -1.57411,3.23306 -2.67578,4.65625 -1.11963,1.43705 -2.37058,2.64651 -3.77344,3.64453 l -0.008,0.006 0.49609,6.4414 h 0.0137 c 0.7103,0.009 1.19691,0.006 1.46485,0.041 1.207,0.15333 2.25369,0.54385 3.18945,1.17773 0.93611,0.63412 1.70696,1.42484 2.29492,2.38477 0.5901,0.94443 1.00578,1.99447 1.2461,3.15234 0.22447,1.15608 0.28392,2.33849 0.13085,3.54297 -0.23769,1.87013 -0.94869,3.5197 -2.1289,4.93164 -1.17975,1.41139 -2.79799,2.34749 -4.87695,2.82422 l -0.0137,0.004 v 0.0137 c 0.0285,0.79447 0.10918,1.94843 0.25977,3.43555 0.13258,1.50057 0.22326,2.6894 0.27344,3.5664 0.0501,0.87627 0.009,1.70891 -0.0937,2.51758 -0.15904,1.25137 -0.60034,2.32166 -1.32813,3.22656 -0.74389,0.90315 -1.66512,1.55762 -2.78125,1.96289 -1.10031,0.4073 -2.27885,0.53045 -3.51758,0.37305 -1.74722,-0.22196 -3.20752,-0.90546 -4.38672,-2.03711 -1.17669,-1.147 -1.70839,-2.54789 -1.55859,-4.23437 0.1422,-0.73735 0.4071,-1.41122 0.80859,-2.03516 0.40172,-0.62431 0.897,-1.1067 1.50391,-1.44727 0.5924,-0.35796 1.2702,-0.49645 2.02149,-0.44922 0.61653,0.0788 1.17958,0.32653 1.6914,0.72852 0.49476,0.4164 0.88014,0.92926 1.13867,1.55664 0.24264,0.62543 0.33447,1.29646 0.2461,1.99219 -0.11848,0.93287 -0.53387,1.68052 -1.25,2.24805 -0.71595,0.56732 -1.56627,0.79669 -2.53321,0.67382 l -0.39453,-0.0508 0.0137,0.0273 c 0.5019,1.03614 1.46309,1.66138 2.88282,1.84179 0.71834,0.0912 1.47242,0.0251 2.24218,-0.16797 0.78788,-0.20697 1.46141,-0.52625 2.05274,-0.96875 0.59082,-0.4421 1.0112,-0.93794 1.22851,-1.49414 v -0.002 c 0.35454,-0.61931 0.59697,-1.50939 0.74024,-2.63672 0.097,-0.76299 0.11487,-1.53549 0.0684,-2.3164 -0.0484,-0.76464 -0.14414,-1.79369 -0.28906,-3.07032 -0.14703,-1.26046 -0.24845,-2.23987 -0.29297,-2.90625 l -0.002,-0.0176 -0.0176,0.002 c -0.98366,0.11666 -1.9847,0.11819 -3.01758,-0.0137 -1.73213,-0.22025 -3.32282,-0.7764 -4.77344,-1.68555 -1.45083,-0.90928 -2.67652,-2.06265 -3.69141,-3.48047 -0.99907,-1.41587 -1.7238,-2.95815 -2.16992,-4.6582 -0.43216,-1.68214 -0.55345,-3.40435 -0.34765,-5.15039 0.2691,-1.60931 0.76795,-3.12402 1.52539,-4.50977 0.75979,-1.40229 1.66881,-2.70536 2.74023,-3.89062 1.0719,-1.18583 2.16247,-2.2577 3.26758,-3.19727 v 0.002 c 1.11951,-0.92214 2.57963,-2.1086 4.41015,-3.53711 l -0.0234,-0.01 0.0293,-0.004 c -0.38906,-2.66101 -0.45451,-5.32853 -0.19531,-8.0039 0.23367,-1.7112 0.61145,-3.29189 1.13477,-4.74024 0.50738,-1.45035 1.13217,-2.67619 1.87695,-3.70898 0.72885,-1.03478 1.51779,-1.78684 2.35156,-2.25977 0.37393,-0.21023 0.69302,-0.36712 0.95117,-0.4668 0.25816,-0.0997 0.45597,-0.1415 0.58594,-0.125 z m -0.0215,5.64258 c -0.96115,-0.12219 -1.90147,0.35965 -2.81641,1.43946 v 0.002 c -0.71877,0.9423 -1.36663,2.08641 -1.89062,3.4082 -0.54189,1.33541 -0.92143,2.67455 -1.12891,4.05274 v 0.002 c -0.12041,1.58273 -0.029,2.90215 0.24024,3.9707 l 0.002,0.008 0.0137,0.006 0.006,-0.004 c 0.56795,-0.25194 1.24407,-0.73019 1.99609,-1.42578 0.74998,-0.67971 1.50215,-1.50379 2.23633,-2.44336 0.75226,-0.95366 1.37924,-1.94097 1.88086,-2.95899 0.49978,-1.00245 0.80266,-1.98167 0.91992,-2.90429 0.0503,-0.39699 0.0683,-0.79768 0.0332,-1.15821 0.009,-0.58181 -0.10996,-1.05269 -0.37696,-1.39648 -0.26837,-0.32702 -0.63438,-0.53653 -1.11523,-0.59766 z m -0.004,0.0312 c 0.47381,0.0602 0.83016,0.26474 1.09375,0.58594 0.26114,0.33625 0.38006,0.79977 0.3711,1.37695 v 0.002 c 0.035,0.3576 0.017,0.75637 -0.0332,1.15234 -0.11675,0.9186 -0.4196,1.89491 -0.91797,2.89453 -0.50056,1.01588 -1.12597,2.0011 -1.87695,2.95313 -0.73324,0.93837 -1.4841,1.76124 -2.23242,2.43945 -0.74223,0.68653 -1.40773,1.15442 -1.9668,1.40625 -0.26418,-1.06055 -0.35772,-2.36552 -0.23828,-3.93555 0.20714,-1.37486 0.5881,-2.71218 1.12891,-4.04492 0.52277,-1.31871 1.16833,-2.4609 1.88476,-3.40039 0.911,-1.07516 1.83898,-1.55023 2.78711,-1.42969 z m -6.29492,19.71875 -0.0234,0.0156 c -2.70945,1.72089 -4.96607,3.58015 -6.79297,5.60742 -1.82565,2.01221 -2.92743,4.3105 -3.32031,6.89258 -0.11563,1.16463 -0.0217,2.32513 0.28711,3.46289 0.30687,1.15397 0.8518,2.22478 1.62891,3.24414 1.57253,2.02534 3.79764,3.26108 6.63672,3.71875 h 0.002 c 0.97977,0.061 2.03663,0.0171 3.1875,-0.12695 l 0.0156,-0.002 -0.89062,-12.77343 -0.0156,0.002 c -1.00849,0.14695 -1.96438,0.64003 -2.89453,1.45898 -0.93285,0.83551 -1.46377,1.82069 -1.60547,2.93555 -0.0891,0.70199 0.0491,1.52802 0.4043,2.42969 0.35376,0.91904 0.97873,1.63088 1.83789,2.14453 h 0.002 v 0.002 c 0.14506,0.0503 0.24709,0.11778 0.3086,0.19922 0.0615,0.0814 0.084,0.17552 0.0703,0.2832 -0.004,0.0324 -0.0319,0.0651 -0.0957,0.0937 -0.063,0.0283 -0.16128,0.0519 -0.29688,0.0664 -1.39641,-0.54806 -2.48664,-1.47422 -3.25976,-2.74609 -0.77193,-1.2891 -1.07946,-2.67847 -0.91797,-4.20313 0.25505,-1.62586 0.94027,-3.08403 2.05469,-4.35937 1.13229,-1.28917 2.4817,-2.13091 4.04882,-2.52735 l 0.0137,-0.004 z m -0.0273,0.0566 0.3789,5.73633 c -1.56783,0.39937 -2.9198,1.24135 -4.05273,2.53125 -1.11809,1.27955 -1.80654,2.74336 -2.0625,4.375 v 0.002 c -0.16215,1.53091 0.14666,2.92806 0.92187,4.22265 0.77726,1.27868 1.87471,2.21147 3.2793,2.76172 l 0.004,0.002 0.004,-0.002 c 0.14026,-0.0147 0.24152,-0.0373 0.31055,-0.0684 0.069,-0.031 0.10723,-0.072 0.11328,-0.11914 0.0146,-0.1145 -0.01,-0.2186 -0.0762,-0.30664 -0.066,-0.0874 -0.17279,-0.1574 -0.32031,-0.20899 l -0.002,-0.002 c -0.85256,-0.51035 -1.47139,-1.21541 -1.82226,-2.12695 -0.35381,-0.8981 -0.49049,-1.71929 -0.40235,-2.41406 0.14073,-1.10729 0.66766,-2.08482 1.59571,-2.91602 0.92176,-0.81157 1.86609,-1.29455 2.86133,-1.44336 l 0.88281,12.70117 c -1.14273,0.14217 -2.19342,0.18944 -3.16602,0.12891 -2.83274,-0.45665 -5.04779,-1.68825 -6.61523,-3.70703 -0.77493,-1.0165 -1.31734,-2.08473 -1.62305,-3.23438 -0.30784,-1.13406 -0.40236,-2.28839 -0.28711,-3.44922 0.39196,-2.57608 1.49069,-4.86702 3.3125,-6.875 1.81935,-2.01889 4.06862,-3.87245 6.76563,-5.58789 z m 1.89257,9.97071 0.002,0.0156 0.93164,12.54102 0.0176,-0.004 c 2.58129,-0.67425 4.08396,-2.66972 4.5,-5.94336 l 0.002,-0.002 c -0.004,-1.11521 -0.19781,-2.14188 -0.62891,-3.08594 -0.41311,-0.95793 -1.02683,-1.74834 -1.85547,-2.37109 -0.82877,-0.62287 -1.8013,-1.00453 -2.94921,-1.15039 h -0.002 z m 0.0352,0.0391 c 1.13325,0.14742 2.09538,0.52144 2.91406,1.13672 0.82431,0.6195 1.43462,1.40419 1.84571,2.35742 0.42896,0.93938 0.621,1.96264 0.625,3.07422 -0.41423,3.25535 -1.90144,5.22985 -4.45703,5.90625 z m -1.18393,-0.01 c -1.00486,0.14642 -1.95657,0.63841 -2.88504,1.45588 -0.93045,0.83335 -1.45932,1.81449 -1.60053,2.92556 -0.0886,0.69838 0.049,1.5223 0.40351,2.42218 0.35249,0.91574 0.97391,1.62373 1.83042,2.13579 0.29421,0.10193 0.41726,0.27884 0.389,0.50102 -0.0102,0.0795 -0.13153,0.1446 -0.41007,0.17371 -1.40151,-0.54905 -2.49597,-1.47845 -3.27155,-2.75437 -0.77357,-1.29184 -1.08147,-2.68576 -0.91965,-4.21355 0.25551,-1.62875 0.94237,-3.08982 2.05862,-4.36727 1.13417,-1.29131 2.48637,-2.13556 4.0566,-2.53278 l -0.38177,-5.77415 c -2.70845,1.72025 -4.96555,3.5785 -6.79131,5.60451 -1.82373,2.01009 -2.92383,4.30571 -3.31625,6.88479 -0.11544,1.16273 -0.02,2.31998 0.28834,3.45589 0.30629,1.15181 0.84954,2.22081 1.62556,3.23874 1.56999,2.02206 3.78989,3.25577 6.6258,3.71293 0.97858,0.0609 2.03502,0.0165 3.18509,-0.12744 z m 1.16576,-0.0137 0.93096,12.52117 c 2.57531,-0.67269 4.07276,-2.65974 4.48829,-5.92941 -0.004,-1.11339 -0.19718,-2.13792 -0.62721,-3.07964 -0.4121,-0.95558 -1.02341,-1.74293 -1.84988,-2.36406 -0.82648,-0.62114 -1.79658,-1.00249 -2.94215,-1.14806 z m -1.16394,-16.92162 c 0.56537,-0.25079 1.24058,-0.72943 1.99178,-1.42426 0.74915,-0.67896 1.50057,-1.50281 2.23428,-2.44178 0.75162,-0.95284 1.37799,-1.93773 1.87908,-2.95468 0.49907,-1.00104 0.80116,-1.97874 0.91817,-2.89935 0.0503,-0.39681 0.069,-0.79765 0.0338,-1.15695 0.009,-0.5795 -0.10947,-1.04613 -0.37354,-1.38615 -0.26598,-0.32411 -0.62767,-0.53135 -1.105,-0.59203 -0.95464,-0.12137 -1.88847,0.35679 -2.80144,1.43427 -0.71779,0.94101 -1.36432,2.0846 -1.88782,3.40514 -0.54147,1.33437 -0.92176,2.67309 -1.12904,4.04994 -0.12031,1.58145 -0.029,2.89948 0.23971,3.96584 z m -1.11939,0.79319 c -0.38925,-2.66228 -0.45416,-5.33175 -0.19483,-8.0084 0.2338,-1.71218 0.61248,-3.29303 1.13622,-4.74256 0.50781,-1.45156 1.13261,-2.67856 1.87842,-3.71278 0.72988,-1.03624 1.52096,-1.79051 2.3573,-2.26489 0.7487,-0.42094 1.27623,-0.62808 1.54672,-0.59373 0.20684,0.0263 0.37176,0.1279 0.51271,0.29097 0.14096,0.16307 0.31756,0.42744 0.53179,0.77725 1.55249,2.92301 2.09566,6.28227 1.61561,10.05985 -0.22791,1.79357 -0.6885,3.50918 -1.38769,5.19447 -0.68128,1.67145 -1.57521,3.2352 -2.67779,4.65956 -1.1205,1.43818 -2.37389,2.64983 -3.77807,3.64878 l 0.49405,6.41743 c 0.71016,0.009 1.19555,0.006 1.46602,0.041 1.20923,0.15361 2.25889,0.54515 3.19671,1.18043 0.93784,0.63529 1.71028,1.42701 2.29945,2.38892 0.59114,0.94609 1.00705,1.99891 1.24772,3.15849 0.22476,1.15756 0.28438,2.3425 0.13108,3.5488 -0.23805,1.87292 -0.9491,3.52447 -2.13122,4.93869 -1.18213,1.41424 -2.80503,2.35314 -4.88668,2.83049 0.0285,0.79396 0.10801,1.94917 0.25857,3.43602 0.13259,1.50067 0.22405,2.68969 0.27424,3.56698 0.0502,0.87734 0.009,1.71076 -0.094,2.52026 -0.15936,1.25392 -0.60286,2.32655 -1.33252,3.23378 -0.7456,0.90522 -1.66978,1.56194 -2.78845,1.96814 -1.1028,0.40822 -2.28268,0.53247 -3.52371,0.37478 -1.7502,-0.22234 -3.2151,-0.90859 -4.39674,-2.04258 -1.17964,-1.14987 -1.71229,-2.55624 -1.56213,-4.24682 0.14247,-0.73989 0.40631,-1.41604 0.80925,-2.04223 0.40293,-0.62619 0.90111,-1.11125 1.51041,-1.45316 0.59545,-0.35981 1.27603,-0.49915 2.02988,-0.45175 0.62052,0.0788 1.18703,0.32824 1.70154,0.73234 0.4966,0.41795 0.88362,0.93485 1.14311,1.56456 0.24354,0.62775 0.33592,1.30072 0.24721,1.9991 -0.11893,0.93647 -0.53807,1.68962 -1.25721,2.25953 -0.71913,0.56985 -1.57294,0.80005 -2.54351,0.67672 l -0.36594,-0.0465 c 0.4995,1.03121 1.45527,1.65266 2.87132,1.83261 0.716,0.0909 1.46805,0.0253 2.23626,-0.16742 0.78614,-0.20652 1.45708,-0.52447 2.0467,-0.96569 0.58959,-0.44119 1.00821,-0.93635 1.22401,-1.48956 0.3532,-0.61635 0.59547,-1.5049 0.73869,-2.63181 0.0969,-0.76188 0.11406,-1.53387 0.0676,-2.31393 -0.0484,-0.76421 -0.14415,-1.79247 -0.28905,-3.06892 -0.14704,-1.26057 -0.24875,-2.2412 -0.29331,-2.90815 -0.9849,0.11681 -1.98754,0.11833 -3.02173,-0.0137 -1.73426,-0.22052 -3.32871,-0.77787 -4.7813,-1.68826 -1.45256,-0.91036 -2.67992,-2.06631 -3.69596,-3.48575 -1.00013,-1.41736 -1.72552,-2.96112 -2.17211,-4.66299 -0.43264,-1.68399 -0.55307,-3.40889 -0.34705,-5.15687 0.26937,-1.61087 0.76935,-3.12792 1.52772,-4.51538 0.76036,-1.40334 1.66978,-2.70709 2.74209,-3.89334 1.0723,-1.18627 2.16233,-2.25739 3.26805,-3.19748 1.11959,-0.92221 2.57981,-2.10757 4.41047,-3.53618 z m 34.13702,30.56044 c 18.56741,-0.0642 32.50166,-0.0538 43.0027,-1.32628 10.50104,-1.27244 17.76262,-3.68641 24.83793,-8.78386 14.15063,-10.19491 26.06767,-30.71444 26.06755,-51.09988 -1.2e-4,-20.38544 -11.57809,-40.66946 -25.72862,-50.8642 -14.15052,-10.19473 -31.0435,-10.72057 -42.23229,-10.72057 -11.1888,0 -17.20132,-0.006 -21.93946,-3.47461 -4.73813,-3.46884 -7.709,-9.90719 -7.70911,-16.86341 -1.1e-4,-6.95622 2.78889,-12.812188 7.8603,-17.153146 2.23236,-1.737657 4.82033,-2.313237 8.83892,-2.749327 4.01859,-0.4361 9.04608,-0.374595 17.40638,-0.435547 h 72.57812 v -0.79479 h -72.57812 c -8.36052,0 -13.92033,5.4e-4 -17.96485,0.43945 -4.04451,0.43891 -6.58298,1.32189 -8.85937,3.08789 -4.55279,3.532 -8.07628,10.56075 -8.07617,17.60547 1.1e-4,7.04472 3.52372,14.07381 8.34765,17.60547 4.82394,3.53165 10.90691,3.52734 22.09571,3.52734 11.18879,0 27.47683,0.002 41.54882,10.14063 14.07199,10.13815 25.95106,30.4443 25.95118,50.72656 1.1e-4,20.28225 -11.87909,40.58824 -25.95118,50.72656 -7.03604,5.06916 -13.95003,7.34993 -24.42442,8.61915 -10.47439,1.26921 -24.50426,0.9281 -43.07167,0.99231 L -4.2e-4,229.86721 V 230.662 Z M 178.59434,25.867066 c -21.58756,0 -36.83266,-0.0018 -50.41993,10.19336 -13.58726,10.195127 -25.49814,30.554022 -25.49803,50.939452 1.2e-4,20.385442 11.91144,40.744512 25.51952,50.939452 13.6081,10.19496 28.8938,10.19336 40.08204,10.19336 11.18823,0 18.29191,0.008 23.56835,3.47852 5.27646,3.47043 8.77355,10.43288 8.77344,17.38867 -1e-4,6.95579 -3.49714,13.91846 -8.77344,17.38867 -2.63815,1.73511 -5.05246,2.35217 -11.52598,2.78907 -6.47354,0.43689 -16.99351,0.10224 -33.13222,0.16025 H 0.063091 v 0.79479 H 147.18809 c 16.13881,0 26.55612,-0.0542 33.04762,-0.4923 6.4915,-0.43811 9.25992,-1.18301 11.9434,-2.94792 5.36696,-3.52983 8.90143,-10.7255 8.90153,-17.7698 1.1e-4,-7.04431 -3.19355,-14.00211 -8.56065,-17.53216 -5.36711,-3.53006 -13.05382,-4.05261 -24.24205,-4.05261 -11.18824,0 -26.39185,-7.3e-4 -39.92384,-10.13867 -13.53197,-10.13794 -24.88281,-29.91709 -24.88293,-50.199352 -1.1e-4,-20.28225 11.87937,-40.588462 25.39062,-50.726562 13.51126,-10.1381 28.14549,-9.464122 49.73255,-9.611458 h 77.53125 V 25.867066 Z M 150.94156,220.13293 c 17.83635,0 30.75709,-0.0553 40.15504,-1.11925 9.39796,-1.06396 15.46662,-3.06096 21.44927,-7.32488 11.96529,-8.52783 22.10086,-25.71299 22.10075,-42.76589 -1.2e-4,-17.0529 -9.79468,-34.00255 -21.75987,-42.53021 -11.9652,-8.52766 -26.27048,-9.05456 -37.33972,-9.05456 -11.06925,0 -19.42749,-0.005 -26.23438,-5.14063 -6.80688,-5.13565 -11.56447,-14.90875 -11.56458,-25.19739 -1e-4,-10.28864 5.27076,-20.32591 12.4067,-25.870193 3.20838,-2.492753 6.62343,-3.1792 11.74955,-3.8233 5.12613,-0.64409 11.14621,-0.579887 20.16224,-0.64453 h 73.80859 V 55.86731 h -73.80859 c -9.01626,0 -15.57089,-0.0011 -20.72461,0.64648 -5.15372,0.64756 -8.90972,1.94785 -12.29883,4.54688 -6.77822,5.19806 -12.08995,15.56036 -12.08984,25.93945 1.1e-4,10.37908 5.31129,20.74119 12.20117,25.93945 6.88988,5.19826 15.32333,5.19336 26.39258,5.19336 11.06924,0 24.77123,0.003 36.6582,8.47461 11.88698,8.47192 21.98036,25.44458 21.98047,42.39258 1.2e-4,16.94799 -10.09339,33.92049 -21.98047,42.39258 -5.94354,4.23604 -11.66359,6.10107 -21.03575,7.16211 -9.37217,1.06103 -22.39168,0.72078 -40.22792,0.78333 H 0.06265 v 0.79479 z M 179.8873,35.867066 c -20.29414,0 -32.9518,-7.48e-4 -44.35351,8.527344 -11.4017,8.528092 -21.5294,25.552563 -21.52929,42.605468 1.2e-4,17.052902 10.12629,34.077562 21.54882,42.605472 11.42253,8.52791 24.12263,8.52734 35.19141,8.52734 11.06879,0 20.51571,0.006 27.86132,5.14258 7.34561,5.13652 12.63097,15.4364 12.63086,25.72461 -1.1e-4,10.28822 -5.28558,20.58845 -12.63086,25.72461 -3.67264,2.56809 -7.19101,3.6012 -14.65489,4.2461 -7.46388,0.64489 -18.86354,0.30765 -35.58925,0.36731 H 0.063091 v 0.79479 H 148.36191 c 16.72582,0 28.025,-0.0545 35.51052,-0.70128 7.48552,-0.64676 11.35612,-1.81033 15.07231,-4.40886 7.43236,-5.19706 12.75298,-15.7212 12.75309,-26.09988 1.1e-4,-10.37867 -4.97758,-20.66679 -12.41026,-25.8642 -7.43269,-5.19739 -17.47405,-5.72057 -28.54284,-5.72057 -11.06878,0 -23.68602,-9.9e-4 -35.03321,-8.47266 -11.34719,-8.47166 -20.9121,-24.91736 -20.91222,-41.865362 -1.1e-4,-16.947996 9.92672,-33.244038 20.89269,-41.865364 11.79209,-9.270806 23.90117,-8.472656 44.19531,-8.472656 h 76.23829 v -0.794792 z m 1.0506,10 c -9.60155,0 -17.02547,-6.87e-4 -23.19336,0.855469 -6.1679,0.856155 -11.08328,2.574477 -15.63868,6.005859 -9.11079,6.862764 -16.79113,20.554952 -16.79101,34.271484 1.1e-4,13.716532 7.68032,27.410842 16.79101,34.273442 9.1107,6.86261 19.62847,6.85937 30.64649,6.85937 11.01801,0 22.54096,0.004 32.11328,6.8086 9.57232,6.80463 17.22277,20.44124 17.22266,34.05859 -1.2e-4,13.61735 -7.65053,27.25417 -17.22266,34.05859 -4.78607,3.40221 -9.38136,4.85018 -17.77208,5.70313 -8.39072,0.85295 -20.56998,0.51519 -37.81581,0.5763 H -0.062107 v 0.79479 H 149.27774 c 17.24594,0 29.32412,-0.0549 37.73903,-0.91027 8.41491,-0.8554 13.36261,-2.43467 18.18949,-5.86589 9.65377,-6.86245 17.34282,-20.71757 17.34294,-34.43386 1.1e-4,-13.71629 -7.34811,-27.33356 -17.00206,-34.19623 -9.65395,-6.86266 -21.77678,-7.38854 -32.79479,-7.38854 -11.01802,0 -21.45383,-0.003 -30.48633,-6.80664 -9.0325,-6.8037 -16.15822,-19.91379 -16.15833,-33.531382 -1.2e-4,-13.617585 8.51243,-28.260297 17.24905,-34.148513 4.69261,-3.162678 8.81292,-4.485771 14.95212,-5.337944 6.1392,-0.852173 13.02749,-0.851563 22.62904,-0.851563 h 75.0625 v -0.794792 z"
           style="color:#000000;font-style:normal;font-variant:normal;font-weight:normal;font-stretch:normal;font-size:medium;line-height:normal;font-family:sans-serif;font-variant-ligatures:normal;font-variant-position:normal;font-variant-caps:normal;font-variant-numeric:normal;font-variant-alternates:normal;font-variant-east-asian:normal;font-feature-settings:normal;font-variation-settings:normal;text-indent:0;text-align:start;text-decoration:none;text-decoration-line:none;text-decoration-style:solid;text-decoration-color:#000000;letter-spacing:normal;word-spacing:normal;text-transform:none;writing-mode:lr-tb;direction:ltr;text-orientation:mixed;dominant-baseline:auto;baseline-shift:baseline;text-anchor:start;white-space:normal;shape-padding:0;shape-margin:0;inline-size:0;clip-rule:nonzero;display:inline;overflow:visible;visibility:visible;isolation:auto;mix-blend-mode:normal;color-interpolation:sRGB;color-interpolation-filters:linearRGB;solid-color:#000000;solid-opacity:1;vector-effect:none;fill-opacity:1;fill-rule:nonzero;stroke:none;stroke-width:0.170165;stroke-linecap:butt;stroke-linejoin:miter;stroke-miterlimit:4;stroke-dasharray:none;stroke-dashoffset:0;stroke-opacity:1;color-rendering:auto;image-rendering:auto;shape-rendering:auto;text-rendering:auto;enable-background:accumulate;stop-color:#000000;stop-opacity:1"
           id="path939"
           inkscape:connector-curvature="0"
           sodipodi:nodetypes="cccccccccccscccccccccccscccccccccccccsscscccccccccccscccccccsscccccccccccccccccccccccccccccscccccccccsccccccccccccsccsccccccccccccccccccccccccccccccccccccccccccccccccccccccccccccccccccccccccccccccccccccccccscccccccccccccccccccccccccccccccccsccccccccccccccccccccccccccccccccccccccccccccccccccccccccccccccccccccccccccccccccccccccccccccccccccccccccccccccccccccccccccccccccccccccccccccccccccccccccccccccccccccccccccccccccccccccccccccccccccscccccccccccccccccccsssssscsccsccsscscscssssccsscsssccccsccssccssssssccssssssscsscsccscsssscsscsccsssssscsccsccsscscsssssccssssssscssssccscsssscssssccs" />
      </g>
    </clipPath>
    <linearGradient
       inkscape:collect="always"
       xlink:href="#linearGradient3277"
       id="linearGradient960"
       gradientUnits="userSpaceOnUse"
       x1="130.5255"
       y1="225.60182"
       x2="130.5255"
       y2="15.255594"
       gradientTransform="matrix(1.1797414,0,0,1.1684765,-25.567552,-11.385596)" />
    <linearGradient
       gradientUnits="userSpaceOnUse"
       y2="15.062081"
       x2="63.16753"
       y1="226.54256"
       x1="63.16753"
       id="linearGradient885"
       xlink:href="#linearGradient883-3"
       inkscape:collect="always" />
    <linearGradient
       gradientUnits="userSpaceOnUse"
       y2="61.113911"
       x2="217.47635"
       y1="201.26096"
       x1="25.526108"
       id="linearGradient895"
       xlink:href="#linearGradient883-3"
       inkscape:collect="always" />
  </defs>
  <sodipodi:namedview
     inkscape:window-maximized="1"
     inkscape:window-y="22"
     inkscape:window-x="0"
     inkscape:window-height="1020"
     inkscape:window-width="2560"
     showgrid="false"
     inkscape:document-rotation="0"
     inkscape:current-layer="layer3"
     inkscape:document-units="mm"
     inkscape:cy="525.3282"
     inkscape:cx="515.55093"
     inkscape:zoom="0.82086933"
     inkscape:pageshadow="2"
     inkscape:pageopacity="0.0"
     borderopacity="1.0"
     bordercolor="#666666"
     pagecolor="#ffffff"
     id="base" />
  <metadata
     id="metadata5">
    <rdf:RDF>
      <cc:Work
         rdf:about="">
        <dc:format>image/svg+xml</dc:format>
        <dc:type
           rdf:resource="http://purl.org/dc/dcmitype/StillImage" />
        <dc:title />
      </cc:Work>
    </rdf:RDF>
  </metadata>
  <g
     style="display:inline"
     inkscape:label="Background"
     id="layer2"
     inkscape:groupmode="layer"
     sodipodi:insensitive="true">
    <path
       inkscape:path-effect="#path-effect1255"
       inkscape:original-d="m 30.80628,40 c -2.521903,25.221936 -5.333016,53.333067 -8,80 2.666984,26.66746 5.333543,53.33305 8,80 6.667068,6.66707 13.333464,13.33346 20,20 26.667467,2.66698 53.3336,5.3336 80,8 26.66693,-2.6664 53.33359,-5.33307 80,-8 6.66693,-6.6664 13.33346,-13.33293 20,-20 2.66699,-26.66694 5.33354,-53.33254 8,-80 -2.66646,-26.666935 -5.33307,-53.33307 -8,-80 -6.6664,-6.666402 -13.33294,-13.332937 -20,-20 -26.66693,-2.666455 -53.33247,-5.333009 -80,-8 -26.667,2.666991 -53.332113,5.333502 -80,8 -6.666641,6.66717 -13.694318,13.694847 -20,20 z"
       transform="matrix(1.1797414,0,0,1.1797414,-25.567552,-12.818945)"
       sodipodi:nodetypes="ccccscccccccc"
       inkscape:connector-curvature="0"
       id="path1253"
       d="m 32.697893,49.458245 c -4.413804,15.763662 -7.224917,43.874793 -7.224891,70.542015 2.6e-5,26.66722 2.666585,53.33281 7.333466,69.99981 4.666881,16.667 11.333274,23.33339 28.000288,28.00004 16.667014,4.66664 43.333144,7.33325 69.999784,7.33323 26.66664,-3e-5 53.3333,-2.6667 69.99985,-7.33335 16.66655,-4.66666 23.33309,-11.33319 27.99984,-28.00007 4.66675,-16.66689 7.33331,-43.33249 7.33333,-69.99966 3e-5,-26.667172 -2.66658,-53.333307 -7.33313,-69.999984 -4.66655,-16.666677 -11.33309,-23.333215 -28.00007,-28.000091 -16.66699,-4.666876 -43.33253,-7.33343 -69.99982,-7.333456 -26.66729,-2.6e-5 -53.332402,2.666485 -69.999784,7.333331 -16.667381,4.666845 -23.695058,11.694522 -28.108863,27.458185 z"
       style="opacity:1;fill:url(#linearGradient3443);fill-opacity:1;stroke:#585858;stroke-width:1.27147;stroke-linecap:butt;stroke-linejoin:miter;stroke-miterlimit:4;stroke-dasharray:none;stroke-opacity:1" />
  </g>
  <g
     style="display:inline"
     inkscape:label="Sheet 2"
     id="layer3"
     inkscape:groupmode="layer">
    <g
       style="opacity:1"
       id="g1210" />
    <g
       style="opacity:1"
       id="g1198" />
    <path
       style="display:inline;opacity:1;fill:url(#linearGradient895);fill-opacity:1;stroke:#585858;stroke-width:1.27147;stroke-linecap:butt;stroke-linejoin:miter;stroke-miterlimit:4;stroke-dasharray:none;stroke-opacity:1"
       d="m 32.697893,49.458245 c -4.413804,15.763662 -7.224917,43.874793 -7.224891,70.542015 2.6e-5,26.66722 2.666585,53.33281 7.333466,69.99981 4.666881,16.667 11.333274,23.33339 28.000288,28.00004 16.667014,4.66664 43.333144,7.33325 69.999784,7.33323 26.66664,-3e-5 53.3333,-2.6667 69.99985,-7.33335 16.66655,-4.66666 23.33309,-11.33319 27.99984,-28.00007 4.66675,-16.66689 7.33331,-43.33249 7.33333,-69.99966 3e-5,-26.667172 -2.66658,-53.333307 -7.33313,-69.999984 -4.66655,-16.666677 -11.33309,-23.333215 -28.00007,-28.000091 -16.66699,-4.666876 -43.33253,-7.33343 -69.99982,-7.333456 -26.66729,-2.6e-5 -53.332402,2.666485 -69.999784,7.333331 -16.667381,4.666845 -23.695058,11.694522 -28.108863,27.458185 z"
       id="path1253-2"
       inkscape:connector-curvature="0"
       sodipodi:nodetypes="ccccscccccccc"
       transform="matrix(1.1797414,0,0,1.1797414,-25.597351,-12.848718)"
       inkscape:original-d="m 30.80628,40 c -2.521903,25.221936 -5.333016,53.333067 -8,80 2.666984,26.66746 5.333543,53.33305 8,80 6.667068,6.66707 13.333464,13.33346 20,20 26.667467,2.66698 53.3336,5.3336 80,8 26.66693,-2.6664 53.33359,-5.33307 80,-8 6.66693,-6.6664 13.33346,-13.33293 20,-20 2.66699,-26.66694 5.33354,-53.33254 8,-80 -2.66646,-26.666935 -5.33307,-53.33307 -8,-80 -6.6664,-6.666402 -13.33294,-13.332937 -20,-20 -26.66693,-2.666455 -53.33247,-5.333009 -80,-8 -26.667,2.666991 -53.332113,5.333502 -80,8 -6.666641,6.66717 -13.694318,13.694847 -20,20 z"
       inkscape:path-effect="#path-effect1255-6"
       clip-path="url(#clipPath937)" />
  </g>
  <g
     sodipodi:insensitive="true"
     inkscape:groupmode="layer"
     id="g947"
     inkscape:label="Mid layer"
     style="display:inline">
    <path
       id="path945"
       style="opacity:1;fill:url(#linearGradient960);fill-opacity:1;stroke:none;stroke-width:1.49282;stroke-linecap:butt;stroke-linejoin:miter;stroke-miterlimit:4;stroke-dasharray:none;stroke-opacity:1"
       d="M 81.757799,8.1274989 C 68.019024,9.5838256 55.704596,11.676625 46.168757,14.321154 37.78292,16.646758 31.466565,19.474692 26.574604,23.381567 V 234.24784 c 4.845849,3.96274 11.124935,6.74604 19.594153,9.09472 9.535636,2.64442 21.850109,4.73732 35.589042,6.19365 z"
       inkscape:connector-curvature="0" />
  </g>
  <g
     style="display:inline"
     inkscape:label="Sheet 1"
     id="layer1"
     inkscape:groupmode="layer">
    <path
       style="display:inline;opacity:1;fill:url(#linearGradient885);fill-opacity:1;stroke:#585858;stroke-width:1.27147;stroke-linecap:butt;stroke-linejoin:miter;stroke-miterlimit:4;stroke-dasharray:none;stroke-opacity:1"
       d="m 32.697893,49.458245 c -4.413804,15.763662 -7.224917,43.874793 -7.224891,70.542015 2.6e-5,26.66722 2.666585,53.33281 7.333466,69.99981 4.666881,16.667 11.333274,23.33339 28.000288,28.00004 16.667014,4.66664 43.333144,7.33325 69.999784,7.33323 26.66664,-3e-5 53.3333,-2.6667 69.99985,-7.33335 16.66655,-4.66666 23.33309,-11.33319 27.99984,-28.00007 4.66675,-16.66689 7.33331,-43.33249 7.33333,-69.99966 3e-5,-26.667172 -2.66658,-53.333307 -7.33313,-69.999984 -4.66655,-16.666677 -11.33309,-23.333215 -28.00007,-28.000091 -16.66699,-4.666876 -43.33253,-7.33343 -69.99982,-7.333456 -26.66729,-2.6e-5 -53.332402,2.666485 -69.999784,7.333331 -16.667381,4.666845 -23.695058,11.694522 -28.108863,27.458185 z"
       id="path1253-5"
       inkscape:connector-curvature="0"
       sodipodi:nodetypes="ccccscccccccc"
       transform="matrix(1.1797414,0,0,1.1797414,-25.597351,-12.848718)"
       inkscape:original-d="m 30.80628,40 c -2.521903,25.221936 -5.333016,53.333067 -8,80 2.666984,26.66746 5.333543,53.33305 8,80 6.667068,6.66707 13.333464,13.33346 20,20 26.667467,2.66698 53.3336,5.3336 80,8 26.66693,-2.6664 53.33359,-5.33307 80,-8 6.66693,-6.6664 13.33346,-13.33293 20,-20 2.66699,-26.66694 5.33354,-53.33254 8,-80 -2.66646,-26.666935 -5.33307,-53.33307 -8,-80 -6.6664,-6.666402 -13.33294,-13.332937 -20,-20 -26.66693,-2.666455 -53.33247,-5.333009 -80,-8 -26.667,2.666991 -53.332113,5.333502 -80,8 -6.666641,6.66717 -13.694318,13.694847 -20,20 z"
       inkscape:path-effect="#path-effect1255-7"
       clip-path="url(#clipPath917)" />
    <g
       style="opacity:1"
       id="g1171" />
    <g
       style="opacity:1"
       id="g1165" />
  </g>
</svg>
